<?xml version="1.0" standalone="no"?>
<!DOCTYPE svg PUBLIC "-//W3C//DTD SVG 20010904//EN"
 "http://www.w3.org/TR/2001/REC-SVG-20010904/DTD/svg10.dtd">
<svg version="1.0" xmlns="http://www.w3.org/2000/svg"
 width="1280.000000pt" height="1280.000000pt" viewBox="0 0 1280.000000 1280.000000"
 preserveAspectRatio="xMidYMid meet">

<g transform="translate(0.000000,1280.000000) scale(0.100000,-0.100000)"
fill="#000000" stroke="none">
<path d="M6659 10683 c-16 -18 -36 -64 -23 -51 8 9 35 -24 59 -72 24 -48 23
-48 50 -16 56 65 36 148 -37 154 -23 2 -39 -3 -49 -15z"/>
<path d="M6858 10447 l-56 -32 -24 21 c-43 39 -51 38 -31 -2 16 -32 19 -62 18
-173 0 -98 -3 -135 -12 -138 -7 -3 -13 -13 -13 -22 0 -25 -40 -118 -73 -168
-44 -69 -185 -193 -219 -193 -6 0 -19 -6 -27 -14 -26 -23 -183 -56 -267 -56
-71 0 -78 -2 -100 -27 -67 -78 -50 -163 32 -163 37 0 58 17 98 80 20 32 26 35
62 32 60 -6 74 -24 74 -98 0 -56 3 -65 27 -84 20 -16 36 -20 57 -16 51 11 66
32 66 98 0 72 21 98 80 98 36 0 41 -4 66 -45 14 -25 34 -50 44 -55 31 -16 79
-11 100 10 28 28 25 73 -7 131 l-28 48 35 36 c40 42 51 43 109 10 51 -30 78
-31 111 -6 19 15 25 29 25 61 0 42 -18 64 -79 95 -34 18 -40 38 -25 86 l14 44
68 5 c57 4 72 9 88 29 26 32 24 77 -6 106 -20 21 -34 25 -85 25 -60 0 -61 0
-76 35 -23 56 -18 70 37 106 55 35 73 67 64 110 -7 30 -43 59 -72 59 -10 -1
-44 -15 -75 -33z"/>
<path d="M5796 9783 c-14 -15 -4 -43 23 -62 31 -22 61 -28 61 -11 0 6 8 10 18
11 13 0 14 2 2 6 -8 3 -34 19 -56 34 -23 16 -44 25 -48 22z"/>
<path d="M5164 9477 c-80 -31 -122 -57 -169 -108 -37 -40 -39 -46 -42 -113 -1
-39 -7 -100 -13 -135 -16 -99 -7 -193 25 -246 31 -54 108 -118 185 -154 48
-23 68 -26 160 -26 100 0 108 2 167 34 102 55 166 132 198 237 18 58 20 162 4
201 -7 15 -17 42 -24 58 -7 17 -15 37 -18 45 -4 11 -7 9 -12 -7 -4 -13 -11
-23 -16 -23 -12 0 -11 27 1 35 6 3 10 11 10 17 0 6 -10 0 -21 -13 l-22 -24 6
23 c3 12 4 23 4 23 -1 1 -120 4 -265 8 -206 5 -262 3 -262 -6 0 -7 -4 -13 -10
-13 -19 0 -10 18 29 53 44 39 121 77 158 77 13 0 34 5 45 11 37 20 197 -19
261 -63 45 -32 34 5 -15 46 -93 80 -249 107 -364 63z m288 -210 c58 -1 104 1
101 6 -2 4 1 7 6 7 6 0 11 -8 11 -17 0 -17 -19 -18 -275 -15 -208 2 -275 6
-275 15 0 12 73 13 432 4z"/>
<path d="M7368 9480 c-110 -46 -175 -107 -227 -214 -43 -89 -58 -172 -44 -249
30 -178 157 -300 346 -333 241 -42 500 94 676 356 68 101 181 320 181 349 0
26 -25 27 -77 6 -58 -24 -202 -46 -258 -40 -86 11 -127 25 -244 83 -113 56
-116 57 -210 59 -77 2 -106 -1 -143 -17z"/>
<path d="M4930 9265 c0 -8 2 -15 4 -15 2 0 6 7 10 15 3 8 1 15 -4 15 -6 0 -10
-7 -10 -15z"/>
<path d="M6490 9265 c-20 -25 -7 -440 19 -588 104 -601 354 -1085 771 -1495
388 -383 872 -633 1414 -732 172 -31 206 -26 206 31 0 28 -33 52 -415 296
-381 243 -532 357 -571 431 -28 52 -21 79 27 107 31 18 53 20 259 21 235 0
320 9 495 50 199 46 361 108 562 214 195 103 213 117 213 156 0 42 -23 50
-115 40 -35 -3 -198 -6 -362 -6 -592 0 -893 55 -893 163 0 9 64 86 143 170
422 454 443 481 383 508 -19 9 -33 6 -75 -15 -147 -75 -366 -153 -526 -187
-117 -26 -349 -31 -453 -10 -346 67 -645 299 -918 713 -49 73 -93 136 -99 140
-17 13 -52 9 -65 -7z"/>
<path d="M6219 9243 c-14 -16 -49 -64 -79 -108 -106 -157 -175 -242 -294 -360
-197 -196 -365 -294 -608 -352 -86 -21 -374 -25 -448 -6 -25 6 -81 19 -125 29
-44 9 -84 20 -90 24 -5 4 -29 11 -52 15 -24 4 -45 11 -49 16 -3 5 -13 9 -23 9
-10 0 -74 29 -143 64 -116 60 -127 63 -147 50 -31 -22 -26 -38 31 -101 28 -32
85 -96 127 -143 108 -121 173 -192 273 -297 90 -94 108 -126 89 -161 -28 -53
-206 -99 -466 -121 -136 -12 -686 -32 -696 -26 -18 11 -165 22 -181 14 -23
-12 -23 -51 0 -71 83 -73 449 -247 617 -294 255 -72 352 -86 637 -87 223 -2
238 -3 265 -23 21 -16 29 -31 31 -62 3 -36 -2 -46 -39 -87 -70 -76 -128 -117
-709 -500 -85 -56 -176 -114 -202 -129 -39 -22 -48 -32 -48 -54 0 -69 24 -69
350 -1 531 112 1074 443 1437 879 402 481 617 1050 626 1655 2 150 -2 185 -24
211 -14 17 -39 18 -39 2 0 -6 -3 -8 -6 -5 -12 11 19 39 38 34 10 -3 16 -1 12
4 -10 17 -40 9 -65 -18z"/>
<path d="M6377 7968 c-18 -27 -72 -186 -66 -192 2 -2 42 -6 89 -7 69 -3 85 -1
88 11 4 21 -70 203 -85 207 -6 2 -18 -6 -26 -19z"/>
<path d="M6729 6819 c-5 -20 -172 -179 -188 -179 -6 0 -11 -8 -11 -17 0 -10
-7 -90 -15 -178 -8 -88 -15 -166 -15 -173 0 -7 -4 -11 -9 -8 -5 3 -44 -48 -87
-113 -68 -103 -105 -143 -119 -129 -2 2 -6 91 -9 198 -10 293 -17 408 -26 384
-5 -11 -37 -66 -73 -122 -36 -55 -73 -114 -81 -130 -9 -17 -23 -37 -32 -46
-13 -13 -16 -43 -17 -159 l-2 -142 352 -2 352 -3 7 38 c9 46 -4 702 -15 757
-4 22 -9 33 -12 24z"/>
<path d="M3243 5633 c-10 -4 -13 -116 -13 -513 l0 -509 33 -5 c17 -3 118 -2
222 2 l190 7 3 59 c2 40 -1 62 -10 68 -7 4 -56 8 -108 8 -52 -1 -101 -1 -108
-1 -10 1 -12 36 -10 159 l3 157 82 5 c45 3 84 8 88 12 13 12 17 83 6 111 -10
27 -12 27 -96 27 l-85 0 0 135 c0 157 -13 144 140 148 l95 2 3 59 c2 41 -1 62
-10 67 -14 9 -404 11 -425 2z"/>
<path d="M3797 5633 c-4 -3 -7 -233 -7 -510 l0 -503 25 -10 c14 -5 105 -6 222
-2 l198 7 3 53 c5 78 -1 82 -129 82 l-109 0 0 433 c0 323 -3 436 -12 445 -13
13 -179 17 -191 5z"/>
<path d="M4353 5623 c-4 -10 -7 -242 -5 -516 l3 -497 217 2 217 3 3 61 c3 74
4 74 -141 74 l-98 0 3 158 3 157 83 5 c59 4 86 9 92 20 14 22 12 106 -3 118
-7 6 -49 12 -92 14 l-80 3 -3 128 -3 127 26 10 c15 6 66 10 115 10 71 0 89 3
94 16 10 27 7 99 -6 112 -9 9 -70 12 -215 12 -183 0 -203 -2 -210 -17z"/>
<path d="M4925 5628 c-9 -29 -26 -1001 -17 -1010 5 -5 38 -8 73 -6 l64 3 8
309 c4 170 12 316 17 325 10 18 19 -14 45 -164 10 -55 35 -183 55 -285 l36
-184 34 -7 c51 -11 89 0 95 25 2 11 18 98 36 191 73 394 80 427 94 414 2 -3 7
-135 10 -294 3 -160 8 -300 10 -311 5 -25 53 -36 110 -27 l34 6 -6 496 c-3
273 -10 504 -15 514 -7 14 -23 17 -96 17 -48 0 -92 -4 -99 -8 -10 -6 -50 -185
-114 -506 -11 -54 -23 -105 -28 -113 -14 -26 -11 -41 -102 442 -17 88 -35 166
-41 172 -15 18 -197 18 -203 1z"/>
<path d="M5803 5633 c-10 -4 -13 -116 -13 -513 0 -476 1 -509 18 -514 9 -3
109 -2 222 2 l205 7 3 61 c3 59 2 62 -24 68 -14 4 -66 6 -114 5 -48 -1 -93 2
-99 5 -12 8 -16 271 -5 300 5 13 22 16 83 16 47 0 82 5 89 12 16 16 15 113 -1
126 -7 6 -49 12 -92 14 l-80 3 -3 125 c-2 109 0 126 15 137 11 9 53 13 120 13
l103 0 0 64 c0 49 -4 65 -16 70 -19 7 -393 7 -411 -1z"/>
<path d="M6363 5634 c-10 -4 -13 -117 -13 -514 l0 -507 31 -7 c47 -9 98 -7
120 4 18 10 19 24 19 270 0 145 4 261 9 264 9 6 29 -38 154 -349 70 -175 73
-179 106 -188 19 -5 49 -6 67 -2 28 5 34 11 39 38 7 40 1 975 -7 982 -3 3 -35
7 -72 9 -101 5 -98 11 -96 -228 3 -267 2 -282 -10 -270 -6 6 -55 116 -111 245
-55 128 -104 238 -108 242 -10 10 -111 19 -128 11z"/>
<path d="M7175 5632 l-185 -2 0 -70 0 -70 64 0 c106 0 96 46 96 -441 0 -400 1
-430 18 -437 26 -11 160 -8 171 3 7 7 11 154 12 425 0 242 5 422 10 432 8 15
23 18 78 18 78 0 81 3 81 80 0 61 -17 72 -100 68 -33 -2 -143 -4 -245 -6z"/>
<path d="M7761 5631 c-7 -5 -17 -31 -22 -57 -7 -44 -58 -305 -124 -644 -47
-237 -59 -310 -52 -317 12 -11 110 -15 146 -6 39 10 46 25 61 138 6 47 14 73
26 82 25 18 129 17 147 -2 9 -8 21 -54 28 -106 7 -51 19 -98 27 -105 14 -14
125 -20 156 -8 20 8 20 46 1 144 -42 208 -85 424 -100 505 -9 50 -23 117 -30
150 -8 33 -19 93 -25 133 -7 40 -19 79 -27 87 -16 17 -187 22 -212 6z m119
-301 c0 -5 9 -71 19 -147 11 -76 21 -156 23 -178 l3 -40 -55 0 -55 0 1 45 c1
52 32 294 41 316 6 16 23 19 23 4z"/>
<path d="M8303 5634 c-10 -4 -13 -117 -13 -514 l0 -509 35 -7 c47 -9 143 0
157 14 7 7 10 74 9 205 -2 212 2 243 30 252 43 14 52 -6 110 -232 49 -193 58
-219 80 -230 28 -15 147 -17 169 -3 17 10 12 31 -64 295 -25 88 -46 172 -46
186 0 16 10 33 30 47 16 13 40 41 52 65 20 36 23 57 23 157 0 130 -9 157 -72
209 -62 52 -109 62 -308 67 -99 2 -186 1 -192 -2z m327 -147 c52 -26 74 -121
49 -210 -14 -50 -57 -77 -125 -77 l-51 0 -7 53 c-10 89 -7 222 6 235 16 16 96
15 128 -1z"/>
<path d="M8980 5631 c-12 -8 1 -55 80 -298 l95 -288 3 -210 c3 -244 -1 -235
102 -235 102 0 98 -9 103 240 l4 215 41 125 c22 69 59 181 82 250 54 161 60
186 47 199 -16 16 -143 14 -159 -3 -8 -8 -34 -81 -57 -162 -23 -82 -46 -155
-51 -164 -11 -19 -18 -2 -70 175 -22 77 -45 144 -51 150 -13 13 -150 18 -169
6z"/>
<path d="M4537 4302 c-112 -40 -161 -115 -161 -247 1 -131 16 -156 215 -337
53 -48 104 -102 113 -121 23 -50 21 -132 -4 -157 -24 -24 -67 -26 -97 -5 -22
16 -53 98 -53 141 0 13 -4 25 -8 28 -12 7 -150 -18 -162 -30 -19 -19 8 -136
43 -195 24 -38 47 -60 87 -83 50 -28 63 -31 145 -31 73 0 98 4 130 22 52 28
100 78 119 125 18 43 21 155 6 210 -18 64 -86 152 -184 236 -125 108 -148 139
-154 207 -4 47 -1 57 21 79 53 53 111 24 127 -64 6 -30 14 -58 19 -63 4 -4 41
-2 82 6 l74 14 -2 57 c-2 70 -33 137 -77 171 -72 55 -185 70 -279 37z"/>
<path d="M5201 4301 c-29 -10 -65 -27 -80 -38 -41 -31 -80 -118 -91 -203 -12
-98 -12 -456 0 -543 25 -171 125 -257 297 -257 188 0 288 110 281 309 l-3 86
-75 3 c-122 5 -120 6 -120 -94 0 -119 -20 -154 -90 -154 -41 0 -71 29 -81 80
-11 60 -11 555 1 605 5 22 19 48 31 58 28 23 81 22 110 -2 21 -17 24 -29 29
-118 l5 -98 95 0 95 0 3 86 c6 197 -92 300 -287 299 -37 -1 -89 -9 -120 -19z"/>
<path d="M6702 4309 c-104 -20 -169 -86 -197 -197 -25 -96 -17 -615 9 -686 45
-119 145 -172 305 -164 154 8 234 71 266 210 20 88 21 532 1 625 -17 77 -56
145 -99 172 -71 43 -186 60 -285 40z m145 -154 c12 -9 27 -32 33 -53 12 -46
13 -562 0 -617 -25 -110 -158 -98 -175 16 -3 24 -5 174 -3 332 l3 289 28 24
c33 28 82 32 114 9z"/>
<path d="M7443 4310 c-104 -22 -170 -82 -197 -179 -24 -86 -24 -610 1 -688 37
-116 118 -174 254 -181 181 -9 275 52 315 203 21 76 19 570 -1 650 -33 128
-113 191 -255 200 -41 2 -94 0 -117 -5z m147 -160 c11 -11 22 -30 25 -43 3
-12 5 -164 3 -336 l-3 -313 -28 -24 c-37 -32 -86 -32 -116 0 -30 31 -37 105
-40 388 -3 230 7 309 42 333 31 22 93 19 117 -5z"/>
<path d="M5752 3788 l3 -513 75 -3 c41 -2 85 0 97 3 l23 5 0 220 c0 210 1 220
20 230 20 11 91 12 143 3 l27 -5 0 -217 c0 -155 3 -220 12 -229 16 -16 170
-16 186 0 14 14 17 984 4 1006 -6 9 -34 12 -103 10 l-94 -3 -5 -205 -5 -205
-84 -3 c-61 -2 -87 1 -92 10 -5 7 -9 102 -9 211 l0 197 -100 0 -100 0 2 -512z"/>
<path d="M7977 4294 c-4 -4 -7 -228 -7 -499 0 -378 3 -495 13 -508 11 -16 33
-17 222 -15 l210 3 3 68 c2 37 -1 67 -5 67 -4 1 -54 1 -109 2 -56 0 -107 3
-113 7 -7 5 -12 136 -13 442 l-3 434 -95 3 c-53 1 -99 0 -103 -4z"/>
</g>
</svg>
