<?xml version="1.0" encoding="UTF-8"?>
<!DOCTYPE svg PUBLIC "-//W3C//DTD SVG 1.1//EN" "http://www.w3.org/Graphics/SVG/1.1/DTD/svg11.dtd">
<svg xmlns="http://www.w3.org/2000/svg" version="1.1" width="1280px" height="1280px" style="shape-rendering:geometricPrecision; text-rendering:geometricPrecision; image-rendering:optimizeQuality; fill-rule:evenodd; clip-rule:evenodd" xmlns:xlink="http://www.w3.org/1999/xlink">
<g><path style="opacity:1" fill="#fd8507" d="M 570.5,263.5 C 570.881,262.069 571.881,261.236 573.5,261C 577.688,260.824 581.688,260.324 585.5,259.5C 587.706,257.545 589.372,255.212 590.5,252.5C 590.5,253.5 590.5,254.5 590.5,255.5C 589.531,257.663 588.698,259.996 588,262.5C 586.184,263.329 584.351,264.163 582.5,265C 593.739,287.976 611.405,294.643 635.5,285C 651.143,273.503 656.31,258.336 651,239.5C 647.218,232.148 641.718,226.314 634.5,222C 630.401,220.224 626.235,220.058 622,221.5C 619.866,220.915 618.366,219.582 617.5,217.5C 613.322,217.869 608.988,218.702 604.5,220C 603.271,222.619 603.604,225.119 605.5,227.5C 605.03,228.463 604.363,228.463 603.5,227.5C 601.822,226.253 600.489,224.586 599.5,222.5C 597.069,210.262 602.069,205.428 614.5,208C 617.281,211.595 620.114,215.095 623,218.5C 625.448,218.301 627.281,217.301 628.5,215.5C 629.222,215.082 629.722,214.416 630,213.5C 630.333,214.833 630.667,216.167 631,217.5C 631.333,213.833 631.667,210.167 632,206.5C 635.892,200.741 640.559,200.074 646,204.5C 646.833,209.5 647.667,214.5 648.5,219.5C 652.224,220.376 655.89,221.376 659.5,222.5C 662.53,229.917 665.03,237.584 667,245.5C 669.484,275.056 656.651,294.222 628.5,303C 613.386,305.589 599.386,302.589 586.5,294C 588.301,293.683 588.634,293.016 587.5,292C 589.41,291.592 590.41,290.425 590.5,288.5C 590,286.5 589.5,284.5 589,282.5C 587.157,281.726 585.324,280.226 583.5,278C 581.866,277.506 580.199,277.34 578.5,277.5C 578.008,275.159 576.841,273.159 575,271.5C 574.34,268.953 574.507,266.453 575.5,264C 574.127,262.521 572.627,262.688 571,264.5C 570.601,264.272 570.435,263.938 570.5,263.5 Z"/></g>
<g><path style="opacity:1" fill="#fe9508" d="M 590.5,255.5 C 591.614,256.885 592.614,258.385 593.5,260C 592.24,261.814 592.24,263.647 593.5,265.5C 602.164,278.402 613.831,282.235 628.5,277C 643.373,267.316 646.873,254.482 639,238.5C 631.171,228.445 621.004,224.945 608.5,228C 605.691,232.813 601.691,236.146 596.5,238C 592.738,242.53 590.738,247.363 590.5,252.5C 589.372,255.212 587.706,257.545 585.5,259.5C 587.1,257.429 587.6,255.095 587,252.5C 583.909,250.994 580.909,249.328 578,247.5C 572.556,237.71 575.222,232.043 586,230.5C 590.551,230.239 594.551,231.573 598,234.5C 600.472,232.544 602.305,230.211 603.5,227.5C 604.363,228.463 605.03,228.463 605.5,227.5C 603.604,225.119 603.271,222.619 604.5,220C 608.988,218.702 613.322,217.869 617.5,217.5C 618.366,219.582 619.866,220.915 622,221.5C 626.235,220.058 630.401,220.224 634.5,222C 641.718,226.314 647.218,232.148 651,239.5C 656.31,258.336 651.143,273.503 635.5,285C 611.405,294.643 593.739,287.976 582.5,265C 584.351,264.163 586.184,263.329 588,262.5C 588.698,259.996 589.531,257.663 590.5,255.5 Z"/></g>
<g><path style="opacity:1" fill="#fea409" d="M 590.5,255.5 C 590.5,254.5 590.5,253.5 590.5,252.5C 590.738,247.363 592.738,242.53 596.5,238C 601.691,236.146 605.691,232.813 608.5,228C 621.004,224.945 631.171,228.445 639,238.5C 646.873,254.482 643.373,267.316 628.5,277C 613.831,282.235 602.164,278.402 593.5,265.5C 592.24,263.647 592.24,261.814 593.5,260C 592.614,258.385 591.614,256.885 590.5,255.5 Z"/></g>
<g><path style="opacity:1" fill="#fc7206" d="M 678.5,233.5 C 677.115,232.386 675.615,231.386 674,230.5C 675.791,233.16 677.958,235.827 680.5,238.5C 679.975,239.192 679.308,239.692 678.5,240C 680.004,241.337 681.004,243.004 681.5,245C 683.568,275.629 670.235,298.296 641.5,313C 634.564,314.57 627.731,316.403 621,318.5C 616.92,317.7 612.753,317.2 608.5,317C 606.277,316.348 605.11,314.848 605,312.5C 604.252,314.332 603.252,315.999 602,317.5C 601.536,316.906 601.369,316.239 601.5,315.5C 602.502,313.989 603.169,312.322 603.5,310.5C 601.251,309.769 599.084,308.769 597,307.5C 592.502,311.243 587.335,312.409 581.5,311C 576.433,307.509 574.6,302.676 576,296.5C 578.624,293.543 581.79,291.377 585.5,290C 586.574,289.261 587.241,288.261 587.5,287C 586.311,285.105 585.311,283.105 584.5,281C 580.5,280.667 576.5,280.333 572.5,280C 567.62,276.055 566.287,271.055 568.5,265C 568.836,263.97 569.503,263.47 570.5,263.5C 570.435,263.938 570.601,264.272 571,264.5C 572.627,262.688 574.127,262.521 575.5,264C 574.507,266.453 574.34,268.953 575,271.5C 576.841,273.159 578.008,275.159 578.5,277.5C 580.199,277.34 581.866,277.506 583.5,278C 585.324,280.226 587.157,281.726 589,282.5C 589.5,284.5 590,286.5 590.5,288.5C 590.41,290.425 589.41,291.592 587.5,292C 588.634,293.016 588.301,293.683 586.5,294C 599.386,302.589 613.386,305.589 628.5,303C 656.651,294.222 669.484,275.056 667,245.5C 665.03,237.584 662.53,229.917 659.5,222.5C 655.89,221.376 652.224,220.376 648.5,219.5C 647.667,214.5 646.833,209.5 646,204.5C 640.559,200.074 635.892,200.741 632,206.5C 631.667,210.167 631.333,213.833 631,217.5C 630.667,216.167 630.333,214.833 630,213.5C 629.722,214.416 629.222,215.082 628.5,215.5C 628.335,212.482 628.502,209.482 629,206.5C 630.663,204.842 631.496,202.842 631.5,200.5C 634.055,199.587 636.721,198.92 639.5,198.5C 642.279,198.92 644.945,199.587 647.5,200.5C 649.725,205.908 650.725,211.574 650.5,217.5C 652.869,217.851 655.203,218.018 657.5,218C 659.297,214.231 661.631,210.898 664.5,208C 676.768,205.413 681.935,210.246 680,222.5C 678.626,224.747 677.126,226.913 675.5,229C 677.1,230.123 678.1,231.623 678.5,233.5 Z"/></g>
<g><path style="opacity:1" fill="#feb309" d="M 612.5,241.5 C 624.404,240.343 629.904,245.676 629,257.5C 624.072,265.747 617.572,267.581 609.5,263C 603.4,254.713 604.4,247.546 612.5,241.5 Z"/></g>
<g><path style="opacity:1" fill="#fb6106" d="M 678.5,233.5 C 681.506,234.448 684.172,233.614 686.5,231C 698.811,227.663 704.311,232.163 703,244.5C 702.044,245.579 701.211,246.745 700.5,248C 697.394,249.46 694.561,251.293 692,253.5C 691.678,255.689 692.178,257.689 693.5,259.5C 692.542,259.047 691.708,258.381 691,257.5C 690.784,255.616 690.117,253.949 689,252.5C 688.957,256.164 689.791,259.664 691.5,263C 689.958,267.029 688.792,271.196 688,275.5C 684.467,284.233 680.133,292.566 675,300.5C 672.655,303.177 669.988,305.51 667,307.5C 664.955,310.423 662.788,313.257 660.5,316C 657.456,316.359 657.122,317.026 659.5,318C 655.767,320.078 651.767,321.244 647.5,321.5C 646.779,326.418 644.112,327.752 639.5,325.5C 638.677,329.919 636.51,330.586 633,327.5C 632.667,329.5 632.333,331.5 632,333.5C 631.667,330.167 631.333,326.833 631,323.5C 630.501,327.486 630.334,331.486 630.5,335.5C 628.74,332.299 627.906,328.633 628,324.5C 625.936,323.409 623.769,323.242 621.5,324C 618.195,333.427 611.862,336.427 602.5,333C 597.717,327.311 597.383,321.478 601.5,315.5C 601.369,316.239 601.536,316.906 602,317.5C 603.252,315.999 604.252,314.332 605,312.5C 605.11,314.848 606.277,316.348 608.5,317C 612.753,317.2 616.92,317.7 621,318.5C 627.731,316.403 634.564,314.57 641.5,313C 670.235,298.296 683.568,275.629 681.5,245C 681.004,243.004 680.004,241.337 678.5,240C 679.308,239.692 679.975,239.192 680.5,238.5C 677.958,235.827 675.791,233.16 674,230.5C 675.615,231.386 677.115,232.386 678.5,233.5 Z"/></g>
<g><path style="opacity:1" fill="#f95305" d="M 693.5,259.5 C 697.312,260.324 701.312,260.824 705.5,261C 706.9,262.438 708.567,263.271 710.5,263.5C 711.689,267.85 711.689,272.183 710.5,276.5C 706.007,280.835 700.673,282.335 694.5,281C 693.689,283.105 692.689,285.105 691.5,287C 695.705,289.983 699.538,293.483 703,297.5C 704.615,308.714 699.782,313.214 688.5,311C 686.557,309.445 684.39,308.278 682,307.5C 679.429,308.644 677.262,310.311 675.5,312.5C 680.12,317.279 681.62,322.946 680,329.5C 674.395,335.388 668.229,336.055 661.5,331.5C 660.874,328.685 659.54,326.185 657.5,324C 655.5,323.333 653.5,323.333 651.5,324C 651.036,329.378 649.703,334.545 647.5,339.5C 642.779,344.344 637.779,344.677 632.5,340.5C 631.05,339.15 630.383,337.484 630.5,335.5C 630.334,331.486 630.501,327.486 631,323.5C 631.333,326.833 631.667,330.167 632,333.5C 632.333,331.5 632.667,329.5 633,327.5C 636.51,330.586 638.677,329.919 639.5,325.5C 644.112,327.752 646.779,326.418 647.5,321.5C 651.767,321.244 655.767,320.078 659.5,318C 657.122,317.026 657.456,316.359 660.5,316C 662.788,313.257 664.955,310.423 667,307.5C 669.988,305.51 672.655,303.177 675,300.5C 680.133,292.566 684.467,284.233 688,275.5C 688.792,271.196 689.958,267.029 691.5,263C 689.791,259.664 688.957,256.164 689,252.5C 690.117,253.949 690.784,255.616 691,257.5C 691.708,258.381 692.542,259.047 693.5,259.5 Z"/></g>
<g><path style="opacity:1" fill="#cc0d9e" d="M 753.5,327.5 C 761.739,327.965 769.072,330.631 775.5,335.5C 773.39,336.117 771.223,335.783 769,334.5C 767.681,336.25 767.181,338.25 767.5,340.5C 760.746,337.747 753.746,335.747 746.5,334.5C 746.06,333.302 745.727,332.135 745.5,331C 747.833,330.667 750.167,330.333 752.5,330C 753.252,329.329 753.586,328.496 753.5,327.5 Z"/></g>
<g><path style="opacity:0.988" fill="#4655f6" d="M 560.5,343.5 C 559.175,342.047 558.342,342.381 558,344.5C 548.755,337.411 538.255,334.411 526.5,335.5C 524.833,335.5 523.167,335.5 521.5,335.5C 521.67,334.178 521.337,333.011 520.5,332C 518.231,332.374 515.898,332.374 513.5,332C 514.167,331.667 514.833,331.333 515.5,331C 515.272,330.601 514.938,330.435 514.5,330.5C 516.026,328.87 518.026,328.037 520.5,328C 529.682,326.7 538.515,327.866 547,331.5C 550.417,333.774 553.917,335.774 557.5,337.5C 557.683,339.988 558.683,341.988 560.5,343.5 Z"/></g>
<g><path style="opacity:0.21" fill="#ed0176" d="M 735.5,330.5 C 741.442,330.212 741.775,331.045 736.5,333C 735.833,334 735.167,335 734.5,336C 728.365,339.811 722.531,343.977 717,348.5C 716.768,347.263 716.268,346.263 715.5,345.5C 719.973,337.527 726.64,332.527 735.5,330.5 Z"/></g>
<g><path style="opacity:0.298" fill="#3175fc" d="M 514.5,330.5 C 514.938,330.435 515.272,330.601 515.5,331C 514.833,331.333 514.167,331.667 513.5,332C 515.898,332.374 518.231,332.374 520.5,332C 521.337,333.011 521.67,334.178 521.5,335.5C 523.167,335.5 524.833,335.5 526.5,335.5C 520.138,337.503 513.805,339.837 507.5,342.5C 508.1,338.252 506.767,337.085 503.5,339C 498.936,343.233 495.103,348.067 492,353.5C 491.376,351.536 491.876,349.869 493.5,348.5C 493.043,347.702 492.376,347.369 491.5,347.5C 496.155,341.017 501.988,335.684 509,331.5C 510.766,330.767 512.599,330.433 514.5,330.5 Z"/></g>
<g><path style="opacity:1" fill="#b917af" d="M 775.5,335.5 C 781.05,337.772 786.716,339.772 792.5,341.5C 786.088,342.73 786.422,344.23 793.5,346C 792.177,346.816 791.511,347.983 791.5,349.5C 785.295,348.934 779.295,347.434 773.5,345C 770.894,344.208 768.894,342.708 767.5,340.5C 767.181,338.25 767.681,336.25 769,334.5C 771.223,335.783 773.39,336.117 775.5,335.5 Z"/></g>
<g><path style="opacity:1" fill="#dc078f" d="M 753.5,327.5 C 753.586,328.496 753.252,329.329 752.5,330C 750.167,330.333 747.833,330.667 745.5,331C 745.727,332.135 746.06,333.302 746.5,334.5C 753.746,335.747 760.746,337.747 767.5,340.5C 768.894,342.708 770.894,344.208 773.5,345C 779.295,347.434 785.295,348.934 791.5,349.5C 803.742,350.473 814.742,347.306 824.5,340C 822.942,339.79 821.609,339.29 820.5,338.5C 830.411,333.577 833.744,336.411 830.5,347C 823.41,364.548 813.41,380.048 800.5,393.5C 800.082,392.778 799.416,392.278 798.5,392C 804.745,386.022 809.912,379.189 814,371.5C 814.651,369.765 814.485,368.098 813.5,366.5C 779.505,365.333 745.505,365.167 711.5,366C 710.418,369.405 709.584,372.905 709,376.5C 708.857,371.398 708.69,366.398 708.5,361.5C 709.758,355.654 712.092,350.321 715.5,345.5C 716.268,346.263 716.768,347.263 717,348.5C 722.531,343.977 728.365,339.811 734.5,336C 735.167,335 735.833,334 736.5,333C 741.775,331.045 741.442,330.212 735.5,330.5C 736.681,328.933 738.347,328.099 740.5,328C 744.821,327.501 749.154,327.334 753.5,327.5 Z"/></g>
<g><path style="opacity:0.949" fill="#9e1fc8" d="M 820.5,338.5 C 821.609,339.29 822.942,339.79 824.5,340C 814.742,347.306 803.742,350.473 791.5,349.5C 791.511,347.983 792.177,346.816 793.5,346C 786.422,344.23 786.088,342.73 792.5,341.5C 795.948,341.108 799.114,341.775 802,343.5C 808.19,341.874 814.357,340.207 820.5,338.5 Z"/></g>
<g><path style="opacity:1" fill="#298dfe" d="M 526.5,335.5 C 538.255,334.411 548.755,337.411 558,344.5C 558.342,342.381 559.175,342.047 560.5,343.5C 563.541,345.898 565.874,348.898 567.5,352.5C 569.094,355.679 570.094,359.012 570.5,362.5C 569.21,361.942 568.377,360.942 568,359.5C 569.304,367.321 569.137,370.321 567.5,368.5C 543.167,368.5 518.833,368.5 494.5,368.5C 493.455,373.727 493.455,378.894 494.5,384C 493.953,384.925 493.287,385.758 492.5,386.5C 491.331,383.802 490.164,381.135 489,378.5C 488.505,371.795 488.505,365.128 489,358.5C 487.953,365.268 487.12,371.935 486.5,378.5C 485.348,373.015 485.182,367.349 486,361.5C 487.532,356.693 489.366,352.026 491.5,347.5C 492.376,347.369 493.043,347.702 493.5,348.5C 491.876,349.869 491.376,351.536 492,353.5C 495.103,348.067 498.936,343.233 503.5,339C 506.767,337.085 508.1,338.252 507.5,342.5C 513.805,339.837 520.138,337.503 526.5,335.5 Z"/></g>
<g><path style="opacity:1" fill="#3088fe" d="M 605.5,385.5 C 611.086,375.328 616.42,364.995 621.5,354.5C 624.386,351.985 627.22,351.985 630,354.5C 630.833,366.847 630.666,379.18 629.5,391.5C 628.289,390.726 628.289,389.893 629.5,389C 621.921,388.816 614.421,388.316 607,387.5C 606.667,387.833 606.333,388.167 606,388.5C 605.517,387.552 605.351,386.552 605.5,385.5 Z"/></g>
<g><path style="opacity:1" fill="#d60b94" d="M 664.5,361.5 C 664.103,362.525 663.437,362.692 662.5,362C 661.206,359.913 660.039,357.746 659,355.5C 658.346,354.304 657.846,354.304 657.5,355.5C 664.193,369.573 671.86,382.907 680.5,395.5C 677.983,394.107 676.316,392.107 675.5,389.5C 666.5,389.5 657.5,389.5 648.5,389.5C 648.37,393.868 648.703,398.202 649.5,402.5C 649.36,404.03 648.693,405.03 647.5,405.5C 645.536,388.274 645.036,370.94 646,353.5C 646.791,351.396 648.291,350.063 650.5,349.5C 652.167,348.167 653.833,348.167 655.5,349.5C 659.471,352.776 662.471,356.776 664.5,361.5 Z"/></g>
<g><path style="opacity:1" fill="#3384fe" d="M 570.5,362.5 C 574.185,381.29 568.351,396.29 553,407.5C 549.091,409.857 544.925,411.524 540.5,412.5C 522.985,413.141 508.152,406.808 496,393.5C 495.617,394.056 495.117,394.389 494.5,394.5C 489.742,390.317 487.075,384.984 486.5,378.5C 487.12,371.935 487.953,365.268 489,358.5C 488.505,365.128 488.505,371.795 489,378.5C 490.164,381.135 491.331,383.802 492.5,386.5C 493.287,385.758 493.953,384.925 494.5,384C 493.455,378.894 493.455,373.727 494.5,368.5C 518.833,368.5 543.167,368.5 567.5,368.5C 569.137,370.321 569.304,367.321 568,359.5C 568.377,360.942 569.21,361.942 570.5,362.5 Z"/></g>
<g><path style="opacity:0.996" fill="#ee0074" d="M 664.5,361.5 C 672.932,374.761 682.598,387.094 693.5,398.5C 693.657,399.873 693.49,401.207 693,402.5C 690.5,400 688,397.5 685.5,395C 684.135,395.143 682.802,395.643 681.5,396.5C 681.5,395.833 681.167,395.5 680.5,395.5C 671.86,382.907 664.193,369.573 657.5,355.5C 657.846,354.304 658.346,354.304 659,355.5C 660.039,357.746 661.206,359.913 662.5,362C 663.437,362.692 664.103,362.525 664.5,361.5 Z"/></g>
<g><path style="opacity:1" fill="#d50b97" d="M 708.5,361.5 C 708.69,366.398 708.857,371.398 709,376.5C 709.584,372.905 710.418,369.405 711.5,366C 745.505,365.167 779.505,365.333 813.5,366.5C 814.485,368.098 814.651,369.765 814,371.5C 809.912,379.189 804.745,386.022 798.5,392C 799.416,392.278 800.082,392.778 800.5,393.5C 783.204,411.094 762.204,417.594 737.5,413C 713.955,403.627 704.288,386.46 708.5,361.5 Z"/></g>
<g><path style="opacity:1" fill="#3a7ffd" d="M 630.5,415.5 C 629.207,414.158 628.374,412.491 628,410.5C 627,412.5 626,414.5 625,416.5C 610.539,416.174 596.372,415.174 582.5,413.5C 590.952,404.724 598.619,395.39 605.5,385.5C 605.351,386.552 605.517,387.552 606,388.5C 606.333,388.167 606.667,387.833 607,387.5C 614.421,388.316 621.921,388.816 629.5,389C 628.289,389.893 628.289,390.726 629.5,391.5C 630.666,379.18 630.833,366.847 630,354.5C 627.22,351.985 624.386,351.985 621.5,354.5C 618.857,358.435 616.19,362.435 613.5,366.5C 612.743,367.773 612.077,367.773 611.5,366.5C 614.246,360.928 617.579,355.761 621.5,351C 624.833,350.333 628.167,350.333 631.5,351C 632.126,351.75 632.626,352.584 633,353.5C 633.667,367.167 633.667,380.833 633,394.5C 631.598,401.418 630.765,408.418 630.5,415.5 Z"/></g>
<g><path style="opacity:1" fill="#4843f5" d="M 621.5,354.5 C 616.42,364.995 611.086,375.328 605.5,385.5C 598.619,395.39 590.952,404.724 582.5,413.5C 581.5,414.167 580.5,414.833 579.5,415.5C 577.519,414.652 575.519,414.152 573.5,414C 563.977,421.844 553.477,428.011 542,432.5C 540.97,432.164 540.47,431.497 540.5,430.5C 545.333,427.875 550.333,425.375 555.5,423C 568.254,414.243 580.088,404.41 591,393.5C 597.865,384.393 604.699,375.393 611.5,366.5C 612.077,367.773 612.743,367.773 613.5,366.5C 616.19,362.435 618.857,358.435 621.5,354.5 Z"/></g>
<g><path style="opacity:0.997" fill="#e40283" d="M 693.5,398.5 C 701.221,406.22 709.554,413.22 718.5,419.5C 717.849,420.091 717.182,420.757 716.5,421.5C 711.696,419.018 707.363,415.852 703.5,412C 702.552,411.517 701.552,411.351 700.5,411.5C 700.137,413.911 701.137,415.411 703.5,416C 701.765,416.651 700.098,416.485 698.5,415.5C 692.458,409.46 686.791,403.127 681.5,396.5C 682.802,395.643 684.135,395.143 685.5,395C 688,397.5 690.5,400 693,402.5C 693.49,401.207 693.657,399.873 693.5,398.5 Z"/></g>
<g><path style="opacity:0.816" fill="#2269fd" d="M 540.5,412.5 C 531.271,414.244 522.104,413.578 513,410.5C 508.162,407.327 503.329,404.16 498.5,401C 496.747,399.001 495.413,396.835 494.5,394.5C 495.117,394.389 495.617,394.056 496,393.5C 508.152,406.808 522.985,413.141 540.5,412.5 Z"/></g>
<g><path style="opacity:1" fill="#cf0f9d" d="M 680.5,395.5 C 681.167,395.5 681.5,395.833 681.5,396.5C 686.791,403.127 692.458,409.46 698.5,415.5C 700.098,416.485 701.765,416.651 703.5,416C 701.137,415.411 700.137,413.911 700.5,411.5C 701.552,411.351 702.552,411.517 703.5,412C 707.363,415.852 711.696,419.018 716.5,421.5C 717.182,420.757 717.849,420.091 718.5,419.5C 728.6,425.648 739.267,430.648 750.5,434.5C 744.97,435.72 739.803,434.72 735,431.5C 733.933,432.191 732.766,432.691 731.5,433C 734.308,435.214 733.975,436.714 730.5,437.5C 727.415,435.435 724.082,433.768 720.5,432.5C 719.914,432.709 719.414,433.043 719,433.5C 698.065,431.518 676.899,430.851 655.5,431.5C 654.997,436.5 654.664,436.167 654.5,430.5C 653.5,430.5 652.5,430.5 651.5,430.5C 650.899,421.946 649.566,413.613 647.5,405.5C 648.693,405.03 649.36,404.03 649.5,402.5C 648.703,398.202 648.37,393.868 648.5,389.5C 657.5,389.5 666.5,389.5 675.5,389.5C 676.316,392.107 677.983,394.107 680.5,395.5 Z"/></g>
<g><path style="opacity:1" fill="#4859f8" d="M 579.5,415.5 C 568.378,427.066 555.044,435.066 539.5,439.5C 539.5,437.833 539.5,436.167 539.5,434.5C 531.31,436.438 523.144,438.438 515,440.5C 507.752,439.265 507.919,438.432 515.5,438C 514.207,437.51 512.873,437.343 511.5,437.5C 521.204,435.821 530.871,433.488 540.5,430.5C 540.47,431.497 540.97,432.164 542,432.5C 553.477,428.011 563.977,421.844 573.5,414C 575.519,414.152 577.519,414.652 579.5,415.5 Z"/></g>
<g><path style="opacity:1" fill="#4171fc" d="M 630.5,415.5 C 627.166,428.531 623.832,441.531 620.5,454.5C 619.624,454.631 618.957,454.298 618.5,453.5C 619.167,451.833 619.833,450.167 620.5,448.5C 620.154,447.304 619.654,447.304 619,448.5C 617.187,454.556 615.187,460.556 613,466.5C 611.415,467.376 610.415,468.709 610,470.5C 609.193,466.551 608.693,466.551 608.5,470.5C 560.833,470.5 513.167,470.5 465.5,470.5C 464.807,474.278 463.64,474.278 462,470.5C 461.667,470.833 461.333,471.167 461,471.5C 454.683,465.587 448.35,459.587 442,453.5C 441.536,454.094 441.369,454.761 441.5,455.5C 438.931,454.371 436.765,452.704 435,450.5C 427.724,441.596 420.224,432.929 412.5,424.5C 410.157,415.176 413.491,412.176 422.5,415.5C 423.087,416.767 423.087,417.767 422.5,418.5C 416.707,415.928 414.207,417.595 415,423.5C 416.685,425.017 418.185,426.684 419.5,428.5C 421.167,428.833 422.833,429.167 424.5,429.5C 426.641,429.387 428.475,428.72 430,427.5C 430.965,429.26 432.132,429.594 433.5,428.5C 432.189,427.742 431.689,426.742 432,425.5C 445.663,431.709 459.497,437.543 473.5,443C 478.68,443.476 483.68,444.643 488.5,446.5C 490.453,445.844 492.453,445.511 494.5,445.5C 494.5,443.833 494.5,442.167 494.5,440.5C 492.692,440.509 491.025,440.009 489.5,439C 493.514,438.501 497.514,438.667 501.5,439.5C 503.333,439.415 504.666,438.748 505.5,437.5C 507.5,437.5 509.5,437.5 511.5,437.5C 512.873,437.343 514.207,437.51 515.5,438C 507.919,438.432 507.752,439.265 515,440.5C 523.144,438.438 531.31,436.438 539.5,434.5C 539.5,436.167 539.5,437.833 539.5,439.5C 555.044,435.066 568.378,427.066 579.5,415.5C 580.5,414.833 581.5,414.167 582.5,413.5C 596.372,415.174 610.539,416.174 625,416.5C 626,414.5 627,412.5 628,410.5C 628.374,412.491 629.207,414.158 630.5,415.5 Z"/></g>
<g><path style="opacity:0.528" fill="#337cfd" d="M 422.5,415.5 C 437.584,422.484 453.084,428.484 469,433.5C 481.178,435.028 493.345,436.361 505.5,437.5C 504.666,438.748 503.333,439.415 501.5,439.5C 497.514,438.667 493.514,438.501 489.5,439C 491.025,440.009 492.692,440.509 494.5,440.5C 494.5,442.167 494.5,443.833 494.5,445.5C 492.453,445.511 490.453,445.844 488.5,446.5C 483.68,444.643 478.68,443.476 473.5,443C 459.497,437.543 445.663,431.709 432,425.5C 431.689,426.742 432.189,427.742 433.5,428.5C 432.132,429.594 430.965,429.26 430,427.5C 428.475,428.72 426.641,429.387 424.5,429.5C 422.833,429.167 421.167,428.833 419.5,428.5C 418.185,426.684 416.685,425.017 415,423.5C 414.207,417.595 416.707,415.928 422.5,418.5C 423.087,417.767 423.087,416.767 422.5,415.5 Z"/></g>
<g><path style="opacity:1" fill="#c614a7" d="M 815.5,478.5 C 814.211,479.501 812.878,479.334 811.5,478C 812.5,477.667 813.5,477.333 814.5,477C 807.927,476.472 807.927,475.638 814.5,474.5C 766.171,473.5 717.838,473.167 669.5,473.5C 670.053,471.061 670.053,468.727 669.5,466.5C 669.167,466.167 668.833,465.833 668.5,465.5C 667.749,466.376 667.249,467.376 667,468.5C 666,467.167 665,465.833 664,464.5C 663.601,464.728 663.435,465.062 663.5,465.5C 661.563,462.882 660.063,459.882 659,456.5C 656.428,447.776 653.928,439.11 651.5,430.5C 652.5,430.5 653.5,430.5 654.5,430.5C 654.664,436.167 654.997,436.5 655.5,431.5C 676.899,430.851 698.065,431.518 719,433.5C 719.414,433.043 719.914,432.709 720.5,432.5C 724.082,433.768 727.415,435.435 730.5,437.5C 733.975,436.714 734.308,435.214 731.5,433C 732.766,432.691 733.933,432.191 735,431.5C 739.803,434.72 744.97,435.72 750.5,434.5C 760.774,436.148 771.108,437.148 781.5,437.5C 780.77,439.045 779.437,439.878 777.5,440C 778.793,440.49 780.127,440.657 781.5,440.5C 780.755,443.93 782.089,445.597 785.5,445.5C 811.355,441.938 835.022,432.771 856.5,418C 857.598,417.23 857.598,416.397 856.5,415.5C 865.691,412.69 869.024,416.024 866.5,425.5C 855.722,437.101 845.222,448.768 835,460.5C 828.695,466.854 822.195,472.854 815.5,478.5 Z"/></g>
<g><path style="opacity:1" fill="#a320c5" d="M 856.5,415.5 C 857.598,416.397 857.598,417.23 856.5,418C 835.022,432.771 811.355,441.938 785.5,445.5C 782.089,445.597 780.755,443.93 781.5,440.5C 780.127,440.657 778.793,440.49 777.5,440C 779.437,439.878 780.77,439.045 781.5,437.5C 798.372,436.356 814.705,432.856 830.5,427C 839.062,422.871 847.729,419.037 856.5,415.5 Z"/></g>
<g><path style="opacity:1" fill="#4667fa" d="M 620.5,454.5 C 616.535,467.724 611.202,480.391 604.5,492.5C 604.071,491.047 603.904,489.381 604,487.5C 602.575,492.925 599.242,496.259 594,497.5C 552.906,496.503 511.739,496.17 470.5,496.5C 470.741,494.114 470.075,492.114 468.5,490.5C 469.984,487.416 469.818,484.416 468,481.5C 467.583,482.756 466.75,483.423 465.5,483.5C 464.847,482.193 464.18,480.86 463.5,479.5C 455.031,472.328 447.698,464.328 441.5,455.5C 441.369,454.761 441.536,454.094 442,453.5C 448.35,459.587 454.683,465.587 461,471.5C 461.333,471.167 461.667,470.833 462,470.5C 463.64,474.278 464.807,474.278 465.5,470.5C 513.167,470.5 560.833,470.5 608.5,470.5C 608.693,466.551 609.193,466.551 610,470.5C 610.415,468.709 611.415,467.376 613,466.5C 615.187,460.556 617.187,454.556 619,448.5C 619.654,447.304 620.154,447.304 620.5,448.5C 619.833,450.167 619.167,451.833 618.5,453.5C 618.957,454.298 619.624,454.631 620.5,454.5 Z"/></g>
<g><path style="opacity:1" fill="#be19b0" d="M 815.5,478.5 C 814.25,481.006 813.584,483.673 813.5,486.5C 812.691,484.708 812.191,482.708 812,480.5C 809.729,483.12 809.062,486.12 810,489.5C 812.157,492.976 814.99,495.643 818.5,497.5C 816.629,497.859 815.129,498.859 814,500.5C 770.051,498.674 725.884,497.841 681.5,498C 679.341,494.682 678.675,494.849 679.5,498.5C 679.043,499.298 678.376,499.631 677.5,499.5C 673.106,489.834 668.606,480.168 664,470.5C 663.506,468.866 663.34,467.199 663.5,465.5C 663.435,465.062 663.601,464.728 664,464.5C 665,465.833 666,467.167 667,468.5C 667.249,467.376 667.749,466.376 668.5,465.5C 668.833,465.833 669.167,466.167 669.5,466.5C 670.053,468.727 670.053,471.061 669.5,473.5C 717.838,473.167 766.171,473.5 814.5,474.5C 807.927,475.638 807.927,476.472 814.5,477C 813.5,477.333 812.5,477.667 811.5,478C 812.878,479.334 814.211,479.501 815.5,478.5 Z"/></g>
<g><path style="opacity:1" fill="#4f38ba" d="M 642.5,479.5 C 644.463,483.318 646.129,487.318 647.5,491.5C 647.141,495.001 647.807,498.501 649.5,502C 646.854,502.497 644.187,502.664 641.5,502.5C 641.666,496.158 641.5,489.825 641,483.5C 640.692,482.692 640.192,482.025 639.5,481.5C 636.901,485.641 636.235,485.474 637.5,481C 639.247,480.648 640.914,480.148 642.5,479.5 Z"/></g>
<g><path style="opacity:1" fill="#4d52c0" d="M 642.5,479.5 C 640.914,480.148 639.247,480.648 637.5,481C 636.235,485.474 636.901,485.641 639.5,481.5C 640.192,482.025 640.692,482.692 641,483.5C 641.5,489.825 641.666,496.158 641.5,502.5C 644.187,502.664 646.854,502.497 649.5,502C 647.807,498.501 647.141,495.001 647.5,491.5C 649.732,495.052 651.066,499.052 651.5,503.5C 649.167,503.5 646.833,503.5 644.5,503.5C 642.833,503.5 641.167,503.5 639.5,503.5C 638.791,502.596 637.791,502.263 636.5,502.5C 636.666,497.821 636.499,493.155 636,488.5C 635.185,490.623 634.185,492.623 633,494.5C 632.329,493.748 631.496,493.414 630.5,493.5C 632.629,489.016 634.463,484.349 636,479.5C 638.274,478.189 640.44,478.189 642.5,479.5 Z"/></g>
<g><path style="opacity:0.998" fill="#e8017d" d="M 813.5,486.5 C 814.431,488.022 815.598,489.355 817,490.5C 825.139,493.69 833.639,495.356 842.5,495.5C 845.219,497.986 848.553,499.153 852.5,499C 849.173,499.61 845.839,500.11 842.5,500.5C 842.5,501.5 842.5,502.5 842.5,503.5C 841.5,503.5 840.5,503.5 839.5,503.5C 832.143,502.714 825.143,500.714 818.5,497.5C 814.99,495.643 812.157,492.976 810,489.5C 809.062,486.12 809.729,483.12 812,480.5C 812.191,482.708 812.691,484.708 813.5,486.5 Z"/></g>
<g><path style="opacity:0.941" fill="#4649f7" d="M 468.5,490.5 C 467.023,492.807 465.023,494.64 462.5,496C 455.318,499.511 447.818,502.011 440,503.5C 437.719,503.437 435.886,502.603 434.5,501C 423.839,500.911 413.172,501.078 402.5,501.5C 397.821,501.666 393.155,501.499 388.5,501C 391.675,501.053 394.342,500.22 396.5,498.5C 407.855,498.532 419.189,498.032 430.5,497C 438.694,495.399 447.028,494.066 455.5,493C 458.5,491.333 461.5,489.667 464.5,488C 465.38,486.644 465.714,485.144 465.5,483.5C 466.75,483.423 467.583,482.756 468,481.5C 469.818,484.416 469.984,487.416 468.5,490.5 Z"/></g>
<g><path style="opacity:1" fill="#4b5ff9" d="M 604.5,492.5 C 600.573,501.318 595.906,509.651 590.5,517.5C 590.013,516.527 589.513,515.527 589,514.5C 587.301,517.921 585.135,520.921 582.5,523.5C 581.883,523.389 581.383,523.056 581,522.5C 580.1,523.77 578.934,524.77 577.5,525.5C 510.836,526.333 444.169,526.833 377.5,527C 378.696,527.654 378.696,528.154 377.5,528.5C 376.083,526.585 374.416,526.585 372.5,528.5C 359.515,523.507 347.182,517.174 335.5,509.5C 335.213,510.2 334.88,510.867 334.5,511.5C 333.292,510.766 331.959,510.433 330.5,510.5C 326.355,500.988 329.355,496.988 339.5,498.5C 339.574,500.411 340.574,501.578 342.5,502C 351.731,504.213 361.064,505.713 370.5,506.5C 381.326,507.659 392.326,507.826 403.5,507C 402.594,505.301 402.261,503.467 402.5,501.5C 413.172,501.078 423.839,500.911 434.5,501C 435.886,502.603 437.719,503.437 440,503.5C 447.818,502.011 455.318,499.511 462.5,496C 465.023,494.64 467.023,492.807 468.5,490.5C 470.075,492.114 470.741,494.114 470.5,496.5C 511.739,496.17 552.906,496.503 594,497.5C 599.242,496.259 602.575,492.925 604,487.5C 603.904,489.381 604.071,491.047 604.5,492.5 Z"/></g>
<g><path style="opacity:1" fill="#3d72fc" d="M 376.5,498.5 C 383.167,498.5 389.833,498.5 396.5,498.5C 394.342,500.22 391.675,501.053 388.5,501C 393.155,501.499 397.821,501.666 402.5,501.5C 402.261,503.467 402.594,505.301 403.5,507C 392.326,507.826 381.326,507.659 370.5,506.5C 373.167,506.5 375.833,506.5 378.5,506.5C 378.52,504.857 377.853,503.524 376.5,502.5C 369.524,501.669 362.524,501.169 355.5,501C 363.167,500.667 370.833,500.333 378.5,500C 377.584,499.722 376.918,499.222 376.5,498.5 Z"/></g>
<g><path style="opacity:1" fill="#3181fe" d="M 339.5,498.5 C 351.833,498.5 364.167,498.5 376.5,498.5C 376.918,499.222 377.584,499.722 378.5,500C 370.833,500.333 363.167,500.667 355.5,501C 362.524,501.169 369.524,501.669 376.5,502.5C 377.853,503.524 378.52,504.857 378.5,506.5C 375.833,506.5 373.167,506.5 370.5,506.5C 361.064,505.713 351.731,504.213 342.5,502C 340.574,501.578 339.574,500.411 339.5,498.5 Z"/></g>
<g><path style="opacity:1" fill="#3f71c6" d="M 639.5,503.5 C 635.5,503.5 631.5,503.5 627.5,503.5C 627.942,499.963 628.942,496.63 630.5,493.5C 631.496,493.414 632.329,493.748 633,494.5C 634.185,492.623 635.185,490.623 636,488.5C 636.499,493.155 636.666,497.821 636.5,502.5C 637.791,502.263 638.791,502.596 639.5,503.5 Z"/></g>
<g><path style="opacity:1" fill="#cf0b9a" d="M 842.5,495.5 C 853.037,497.516 863.704,498.516 874.5,498.5C 874.389,499.117 874.056,499.617 873.5,500C 875.833,500.333 878.167,500.667 880.5,501C 877.854,501.497 875.187,501.664 872.5,501.5C 872.739,503.467 872.406,505.301 871.5,507C 860.443,508.228 849.777,507.062 839.5,503.5C 840.5,503.5 841.5,503.5 842.5,503.5C 842.5,502.5 842.5,501.5 842.5,500.5C 845.839,500.11 849.173,499.61 852.5,499C 848.553,499.153 845.219,497.986 842.5,495.5 Z"/></g>
<g><path style="opacity:1" fill="#f7e494" d="M 627.5,503.5 C 631.5,503.5 635.5,503.5 639.5,503.5C 641.167,503.5 642.833,503.5 644.5,503.5C 643.07,505.155 642.236,507.155 642,509.5C 640.195,529.861 638.195,550.194 636,570.5C 629.452,572.438 622.618,573.105 615.5,572.5C 615.56,560.448 616.393,548.448 618,536.5C 619.843,532.985 620.843,529.318 621,525.5C 619.207,529.046 617.707,532.713 616.5,536.5C 616.043,537.298 615.376,537.631 614.5,537.5C 618.34,525.926 622.673,514.592 627.5,503.5 Z"/></g>
<g><path style="opacity:1" fill="#b81cb5" d="M 818.5,497.5 C 825.143,500.714 832.143,502.714 839.5,503.5C 849.777,507.062 860.443,508.228 871.5,507C 872.406,505.301 872.739,503.467 872.5,501.5C 875.187,501.664 877.854,501.497 880.5,501C 878.167,500.667 875.833,500.333 873.5,500C 874.056,499.617 874.389,499.117 874.5,498.5C 885.833,498.5 897.167,498.5 908.5,498.5C 906.524,500.011 904.191,500.844 901.5,501C 903.345,502.128 905.345,502.628 907.5,502.5C 907.5,503.833 907.5,505.167 907.5,506.5C 919.101,505.634 930.435,503.468 941.5,500C 940.944,499.617 940.611,499.117 940.5,498.5C 943.005,497.503 945.672,497.503 948.5,498.5C 949.129,500.465 949.796,502.465 950.5,504.5C 949.754,507.275 948.421,509.608 946.5,511.5C 946.33,510.178 946.663,509.011 947.5,508C 944.208,508.819 941.208,510.486 938.5,513C 931.121,517.356 923.454,521.189 915.5,524.5C 879.292,523.186 842.625,522.519 805.5,522.5C 769.833,522.833 734.167,523.167 698.5,523.5C 699.428,524.768 699.595,526.101 699,527.5C 697.841,526.434 697.008,526.767 696.5,528.5C 689.871,519.17 683.538,509.503 677.5,499.5C 678.376,499.631 679.043,499.298 679.5,498.5C 678.675,494.849 679.341,494.682 681.5,498C 725.884,497.841 770.051,498.674 814,500.5C 815.129,498.859 816.629,497.859 818.5,497.5 Z"/></g>
<g><path style="opacity:1" fill="#9823ce" d="M 908.5,498.5 C 919.167,498.5 929.833,498.5 940.5,498.5C 940.611,499.117 940.944,499.617 941.5,500C 930.435,503.468 919.101,505.634 907.5,506.5C 907.5,505.167 907.5,503.833 907.5,502.5C 905.345,502.628 903.345,502.128 901.5,501C 904.191,500.844 906.524,500.011 908.5,498.5 Z"/></g>
<g><path style="opacity:1" fill="#4d59f8" d="M 582.5,523.5 C 578.876,529.236 574.876,534.736 570.5,540C 517.168,540.5 463.834,540.667 410.5,540.5C 397.147,538.269 384.48,534.269 372.5,528.5C 374.416,526.585 376.083,526.585 377.5,528.5C 378.696,528.154 378.696,527.654 377.5,527C 444.169,526.833 510.836,526.333 577.5,525.5C 578.934,524.77 580.1,523.77 581,522.5C 581.383,523.056 581.883,523.389 582.5,523.5 Z"/></g>
<g><path style="opacity:1" fill="#b11ebb" d="M 946.5,511.5 C 924.129,524.681 900.462,535.181 875.5,543C 853.903,548.02 832.07,549.52 810,547.5C 805.828,547.959 801.662,548.459 797.5,549C 794.821,550.346 792.821,552.346 791.5,555C 792.741,556.731 793.741,558.564 794.5,560.5C 792.589,560.426 791.422,559.426 791,557.5C 790.601,557.728 790.435,558.062 790.5,558.5C 788.692,557.082 788.025,555.082 788.5,552.5C 767.497,552.333 746.497,552.5 725.5,553C 724.167,553.333 722.833,553.667 721.5,554C 725.333,557.167 728.833,560.667 732,564.5C 732.667,565.167 732.667,565.833 732,566.5C 731.23,565.402 730.397,565.402 729.5,566.5C 721.811,559.644 714.644,552.311 708,544.5C 703.567,539.572 699.734,534.239 696.5,528.5C 697.008,526.767 697.841,526.434 699,527.5C 699.595,526.101 699.428,524.768 698.5,523.5C 734.167,523.167 769.833,522.833 805.5,522.5C 842.625,522.519 879.292,523.186 915.5,524.5C 923.454,521.189 931.121,517.356 938.5,513C 941.208,510.486 944.208,508.819 947.5,508C 946.663,509.011 946.33,510.178 946.5,511.5 Z"/></g>
<g><path style="opacity:1" fill="#4e53f7" d="M 590.5,517.5 C 581.514,531.313 571.514,544.313 560.5,556.5C 558.683,555.781 558.016,554.781 558.5,553.5C 555.797,556.538 552.797,559.205 549.5,561.5C 530.345,561.47 511.012,561.47 491.5,561.5C 491.768,559.901 491.434,558.568 490.5,557.5C 490.545,552.426 488.212,548.926 483.5,547C 478.393,545.778 473.226,544.945 468,544.5C 451.121,546.887 434.288,546.387 417.5,543C 415.073,542.098 412.74,541.264 410.5,540.5C 463.834,540.667 517.168,540.5 570.5,540C 574.876,534.736 578.876,529.236 582.5,523.5C 585.135,520.921 587.301,517.921 589,514.5C 589.513,515.527 590.013,516.527 590.5,517.5 Z"/></g>
<g><path style="opacity:0.039" fill="#3940f7" d="M 372.5,528.5 C 384.48,534.269 397.147,538.269 410.5,540.5C 412.74,541.264 415.073,542.098 417.5,543C 434.288,546.387 451.121,546.887 468,544.5C 473.226,544.945 478.393,545.778 483.5,547C 488.212,548.926 490.545,552.426 490.5,557.5C 486.668,562.171 483.002,567.004 479.5,572C 470.41,576.078 462.077,581.411 454.5,588C 453.5,588.5 452.5,589 451.5,589.5C 451.213,588.8 450.88,588.133 450.5,587.5C 457.529,581.418 465.195,575.918 473.5,571C 476.368,567.634 479.701,564.8 483.5,562.5C 489.327,556.984 488.66,552.484 481.5,549C 477.193,548.266 472.86,547.766 468.5,547.5C 440.364,549.989 413.03,546.656 386.5,537.5C 369.729,531.594 353.729,524.094 338.5,515C 336.907,514.051 335.574,512.885 334.5,511.5C 334.88,510.867 335.213,510.2 335.5,509.5C 347.182,517.174 359.515,523.507 372.5,528.5 Z"/></g>
<g><path style="opacity:1" fill="#febd13" d="M 660.5,526.5 C 665.541,540.988 671.041,555.322 677,569.5C 677.494,571.134 677.66,572.801 677.5,574.5C 668.918,573.53 660.251,573.197 651.5,573.5C 653.474,559.864 655.141,546.364 656.5,533C 656.015,529.589 655.348,526.256 654.5,523C 654.957,522.586 655.291,522.086 655.5,521.5C 654.248,519.265 653.748,516.931 654,514.5C 655.793,518.046 657.293,521.713 658.5,525.5C 658.957,526.298 659.624,526.631 660.5,526.5 Z"/></g>
<g><path style="opacity:1" fill="#fccd4e" d="M 654.5,509.5 C 656.346,515.214 658.346,520.88 660.5,526.5C 659.624,526.631 658.957,526.298 658.5,525.5C 657.293,521.713 655.793,518.046 654,514.5C 653.748,516.931 654.248,519.265 655.5,521.5C 655.291,522.086 654.957,522.586 654.5,523C 655.348,526.256 656.015,529.589 656.5,533C 655.141,546.364 653.474,559.864 651.5,573.5C 650.833,573.5 650.167,573.5 649.5,573.5C 646.167,573.5 642.833,573.5 639.5,573.5C 640.919,572.549 642.585,572.216 644.5,572.5C 644.789,568.894 644.456,565.394 643.5,562C 645.738,545.596 647.571,529.096 649,512.5C 649.862,510.913 650.529,509.246 651,507.5C 651.816,508.823 652.983,509.489 654.5,509.5 Z"/></g>
<g><path style="opacity:1" fill="#fad469" d="M 644.5,503.5 C 646.833,503.5 649.167,503.5 651.5,503.5C 653.025,505.216 654.025,507.216 654.5,509.5C 652.983,509.489 651.816,508.823 651,507.5C 650.529,509.246 649.862,510.913 649,512.5C 647.571,529.096 645.738,545.596 643.5,562C 644.456,565.394 644.789,568.894 644.5,572.5C 642.585,572.216 640.919,572.549 639.5,573.5C 635.5,573.5 631.5,573.5 627.5,573.5C 625.167,573.5 622.833,573.5 620.5,573.5C 615.167,573.5 609.833,573.5 604.5,573.5C 604.649,572.448 604.483,571.448 604,570.5C 603.392,572.066 602.558,573.4 601.5,574.5C 601.34,572.801 601.506,571.134 602,569.5C 605.866,558.74 610.032,548.073 614.5,537.5C 615.376,537.631 616.043,537.298 616.5,536.5C 617.707,532.713 619.207,529.046 621,525.5C 620.843,529.318 619.843,532.985 618,536.5C 616.393,548.448 615.56,560.448 615.5,572.5C 622.618,573.105 629.452,572.438 636,570.5C 638.195,550.194 640.195,529.861 642,509.5C 642.236,507.155 643.07,505.155 644.5,503.5 Z"/></g>
<g><path style="opacity:1" fill="#ab23c3" d="M 790.5,558.5 C 791.38,561.262 792.546,563.929 794,566.5C 797.713,570.708 801.213,575.041 804.5,579.5C 786.398,580.481 768.398,580.814 750.5,580.5C 745.688,576.856 741.021,573.022 736.5,569C 735.833,568.333 735.167,568.333 734.5,569C 735.252,569.671 735.586,570.504 735.5,571.5C 732.891,570.557 730.891,568.89 729.5,566.5C 730.397,565.402 731.23,565.402 732,566.5C 732.667,565.833 732.667,565.167 732,564.5C 728.833,560.667 725.333,557.167 721.5,554C 722.833,553.667 724.167,553.333 725.5,553C 746.497,552.5 767.497,552.333 788.5,552.5C 788.025,555.082 788.692,557.082 790.5,558.5 Z"/></g>
<g><path style="opacity:1" fill="#504af6" d="M 560.5,556.5 C 552.134,564.868 543.467,572.868 534.5,580.5C 534.389,579.883 534.056,579.383 533.5,579C 534.833,577.667 536.167,576.333 537.5,575C 531.037,579.077 524.704,583.744 518.5,589C 511.923,592.779 505.59,596.779 499.5,601C 498.552,601.483 497.552,601.649 496.5,601.5C 480.042,602.174 463.542,602.84 447,603.5C 446.228,603.355 445.561,603.022 445,602.5C 445.263,603.951 445.096,605.284 444.5,606.5C 443.824,605.398 443.158,604.398 442.5,603.5C 443.714,602.374 444.714,601.041 445.5,599.5C 444.802,598.137 444.802,596.971 445.5,596C 444.167,595.333 442.833,595.333 441.5,596C 437.99,598.182 434.49,600.349 431,602.5C 430.5,602.333 430,602.167 429.5,602C 432.402,601.081 432.735,600.248 430.5,599.5C 436.114,595.767 441.781,591.934 447.5,588C 448.448,587.517 449.448,587.351 450.5,587.5C 450.88,588.133 451.213,588.8 451.5,589.5C 452.5,589 453.5,588.5 454.5,588C 462.077,581.411 470.41,576.078 479.5,572C 483.002,567.004 486.668,562.171 490.5,557.5C 491.434,558.568 491.768,559.901 491.5,561.5C 511.012,561.47 530.345,561.47 549.5,561.5C 552.797,559.205 555.797,556.538 558.5,553.5C 558.016,554.781 558.683,555.781 560.5,556.5 Z"/></g>
<g><path style="opacity:1" fill="#dd048b" d="M 794.5,560.5 C 803.969,569.922 814.636,577.922 826.5,584.5C 826.33,585.822 826.663,586.989 827.5,588C 826.033,589.098 825.199,590.598 825,592.5C 823.667,591.833 822.667,590.833 822,589.5C 821.722,590.416 821.222,591.082 820.5,591.5C 814.902,587.909 809.569,583.909 804.5,579.5C 801.213,575.041 797.713,570.708 794,566.5C 792.546,563.929 791.38,561.262 790.5,558.5C 790.435,558.062 790.601,557.728 791,557.5C 791.422,559.426 792.589,560.426 794.5,560.5 Z"/></g>
<g><path style="opacity:1" fill="#feb009" d="M 620.5,573.5 C 615.853,582.122 610.686,590.455 605,598.5C 604.667,595.5 604.333,592.5 604,589.5C 603.148,590.571 602.315,591.571 601.5,592.5C 601.5,586.5 601.5,580.5 601.5,574.5C 602.558,573.4 603.392,572.066 604,570.5C 604.483,571.448 604.649,572.448 604.5,573.5C 609.833,573.5 615.167,573.5 620.5,573.5 Z"/></g>
<g><path style="opacity:1" fill="#fe9e09" d="M 620.5,573.5 C 622.833,573.5 625.167,573.5 627.5,573.5C 627.168,582.857 627.502,592.19 628.5,601.5C 635.878,592.455 642.878,583.122 649.5,573.5C 650.167,573.5 650.833,573.5 651.5,573.5C 652.116,583.669 651.282,593.669 649,603.5C 641.246,612.416 634.079,621.749 627.5,631.5C 627.5,631.167 627.5,630.833 627.5,630.5C 627.393,616.488 626.893,602.488 626,588.5C 619.468,600.052 612.468,611.385 605,622.5C 604.667,619.167 604.333,615.833 604,612.5C 603.243,614.315 602.41,615.981 601.5,617.5C 601.5,609.167 601.5,600.833 601.5,592.5C 602.315,591.571 603.148,590.571 604,589.5C 604.333,592.5 604.667,595.5 605,598.5C 610.686,590.455 615.853,582.122 620.5,573.5 Z"/></g>
<g><path style="opacity:1" fill="#feba0b" d="M 627.5,573.5 C 631.5,573.5 635.5,573.5 639.5,573.5C 642.833,573.5 646.167,573.5 649.5,573.5C 642.878,583.122 635.878,592.455 628.5,601.5C 627.502,592.19 627.168,582.857 627.5,573.5 Z"/></g>
<g><path style="opacity:1" fill="#c212a8" d="M 826.5,584.5 C 834.085,590.446 842.085,595.779 850.5,600.5C 848.706,601.857 846.706,603.023 844.5,604C 845.451,604.718 845.617,605.551 845,606.5C 840.665,605.766 836.498,603.932 832.5,601C 828.249,598.055 824.249,594.888 820.5,591.5C 821.222,591.082 821.722,590.416 822,589.5C 822.667,590.833 823.667,591.833 825,592.5C 825.199,590.598 826.033,589.098 827.5,588C 826.663,586.989 826.33,585.822 826.5,584.5 Z"/></g>
<g><path style="opacity:1" fill="#5340f4" d="M 496.5,601.5 C 492.649,604.78 488.315,607.613 483.5,610C 455.352,623.624 425.685,632.458 394.5,636.5C 390.011,636.167 388.511,633.833 390,629.5C 393.36,627.949 393.193,627.449 389.5,628C 388.526,630.665 387.859,630.831 387.5,628.5C 388.5,626.833 389.833,625.5 391.5,624.5C 391.962,625.88 392.962,626.547 394.5,626.5C 411.37,620.396 427.37,612.729 442.5,603.5C 443.158,604.398 443.824,605.398 444.5,606.5C 445.096,605.284 445.263,603.951 445,602.5C 445.561,603.022 446.228,603.355 447,603.5C 463.542,602.84 480.042,602.174 496.5,601.5 Z"/></g>
<g><path style="opacity:1" fill="#3b72fb" d="M 442.5,603.5 C 427.37,612.729 411.37,620.396 394.5,626.5C 392.962,626.547 391.962,625.88 391.5,624.5C 404.307,615.916 417.307,607.583 430.5,599.5C 432.735,600.248 432.402,601.081 429.5,602C 430,602.167 430.5,602.333 431,602.5C 434.49,600.349 437.99,598.182 441.5,596C 442.833,595.333 444.167,595.333 445.5,596C 444.802,596.971 444.802,598.137 445.5,599.5C 444.714,601.041 443.714,602.374 442.5,603.5 Z"/></g>
<g><path style="opacity:1" fill="#a326c9" d="M 804.5,579.5 C 809.569,583.909 814.902,587.909 820.5,591.5C 824.249,594.888 828.249,598.055 832.5,601C 836.498,603.932 840.665,605.766 845,606.5C 845.617,605.551 845.451,604.718 844.5,604C 846.706,603.023 848.706,601.857 850.5,600.5C 857.951,605.51 865.284,610.51 872.5,615.5C 871.121,618.047 869.454,618.047 867.5,615.5C 867.891,616.891 867.058,617.891 865,618.5C 862.319,617.628 859.653,616.628 857,615.5C 849.088,616.753 841.088,617.42 833,617.5C 825.833,617.333 818.667,617.167 811.5,617C 794.296,609.256 778.296,600.422 763.5,590.5C 762.304,590.846 762.304,591.346 763.5,592C 762.906,592.464 762.239,592.631 761.5,592.5C 751.817,586.858 743.15,579.858 735.5,571.5C 735.586,570.504 735.252,569.671 734.5,569C 735.167,568.333 735.833,568.333 736.5,569C 741.021,573.022 745.688,576.856 750.5,580.5C 768.398,580.814 786.398,580.481 804.5,579.5 Z"/></g>
<g><path style="opacity:1" fill="#fd7f07" d="M 627.5,630.5 C 626.672,624.681 626.172,618.681 626,612.5C 619.364,623.301 612.531,633.967 605.5,644.5C 604.749,643.624 604.249,642.624 604,641.5C 603.764,643.119 602.931,644.119 601.5,644.5C 601.5,635.5 601.5,626.5 601.5,617.5C 602.41,615.981 603.243,614.315 604,612.5C 604.333,615.833 604.667,619.167 605,622.5C 612.468,611.385 619.468,600.052 626,588.5C 626.893,602.488 627.393,616.488 627.5,630.5 Z"/></g>
<g><path style="opacity:1" fill="#9a26cf" d="M 872.5,615.5 C 879.493,619.01 885.993,623.344 892,628.5C 893.85,631.975 893.35,635.142 890.5,638C 885.167,638.667 879.833,638.667 874.5,638C 839.555,632.44 806.889,620.773 776.5,603C 771.055,599.941 766.055,596.441 761.5,592.5C 762.239,592.631 762.906,592.464 763.5,592C 762.304,591.346 762.304,590.846 763.5,590.5C 778.296,600.422 794.296,609.256 811.5,617C 818.667,617.167 825.833,617.333 833,617.5C 841.088,617.42 849.088,616.753 857,615.5C 859.653,616.628 862.319,617.628 865,618.5C 867.058,617.891 867.891,616.891 867.5,615.5C 869.454,618.047 871.121,618.047 872.5,615.5 Z"/></g>
<g><path style="opacity:0.094" fill="#422df3" d="M 534.5,580.5 C 503.425,604.719 468.758,622.219 430.5,633C 418.724,634.761 407.057,636.594 395.5,638.5C 392.911,638.473 390.411,638.139 388,637.5C 387.546,635.464 386.713,633.63 385.5,632C 385.808,630.541 386.475,629.374 387.5,628.5C 387.859,630.831 388.526,630.665 389.5,628C 393.193,627.449 393.36,627.949 390,629.5C 388.511,633.833 390.011,636.167 394.5,636.5C 425.685,632.458 455.352,623.624 483.5,610C 488.315,607.613 492.649,604.78 496.5,601.5C 497.552,601.649 498.552,601.483 499.5,601C 505.59,596.779 511.923,592.779 518.5,589C 524.704,583.744 531.037,579.077 537.5,575C 536.167,576.333 534.833,577.667 533.5,579C 534.056,579.383 534.389,579.883 534.5,580.5 Z"/></g>
<g><path style="opacity:1" fill="#fd8808" d="M 651.5,573.5 C 660.251,573.197 668.918,573.53 677.5,574.5C 677.5,582.167 677.5,589.833 677.5,597.5C 676.817,592.938 675.983,588.272 675,583.5C 674.944,586.78 674.111,589.78 672.5,592.5C 665.771,599.095 659.271,605.095 653,610.5C 651.755,616.39 651.088,622.39 651,628.5C 643.5,638.833 636,649.167 628.5,659.5C 627.502,650.19 627.168,640.857 627.5,631.5C 634.079,621.749 641.246,612.416 649,603.5C 651.282,593.669 652.116,583.669 651.5,573.5 Z"/></g>
<g><path style="opacity:1" fill="#fa5506" d="M 677.5,678.5 C 677.773,680.451 677.107,681.951 675.5,683C 651.833,683.667 628.167,683.667 604.5,683C 602.561,682.092 601.561,680.592 601.5,678.5C 603.094,675.939 604.094,672.939 604.5,669.5C 611.938,658.28 619.104,646.947 626,635.5C 626.5,650.163 626.667,664.83 626.5,679.5C 629.724,679.797 632.724,679.13 635.5,677.5C 638.768,673.606 641.934,669.606 645,665.5C 646.559,663.783 647.392,661.783 647.5,659.5C 648.5,659.5 649.5,659.5 650.5,659.5C 651.04,653.317 651.706,647.151 652.5,641C 659.618,633.882 666.785,626.715 674,619.5C 674.333,614.833 674.667,610.167 675,605.5C 676.022,629.985 676.855,654.318 677.5,678.5 Z"/></g>
<g><path style="opacity:1" fill="#fc6e08" d="M 677.5,597.5 C 677.5,624.5 677.5,651.5 677.5,678.5C 676.855,654.318 676.022,629.985 675,605.5C 674.667,610.167 674.333,614.833 674,619.5C 666.785,626.715 659.618,633.882 652.5,641C 651.706,647.151 651.04,653.317 650.5,659.5C 649.5,659.5 648.5,659.5 647.5,659.5C 647.392,661.783 646.559,663.783 645,665.5C 641.934,669.606 638.768,673.606 635.5,677.5C 632.724,679.13 629.724,679.797 626.5,679.5C 626.667,664.83 626.5,650.163 626,635.5C 619.104,646.947 611.938,658.28 604.5,669.5C 604.094,672.939 603.094,675.939 601.5,678.5C 601.5,667.167 601.5,655.833 601.5,644.5C 602.931,644.119 603.764,643.119 604,641.5C 604.249,642.624 604.749,643.624 605.5,644.5C 612.531,633.967 619.364,623.301 626,612.5C 626.172,618.681 626.672,624.681 627.5,630.5C 627.5,630.833 627.5,631.167 627.5,631.5C 627.168,640.857 627.502,650.19 628.5,659.5C 636,649.167 643.5,638.833 651,628.5C 651.088,622.39 651.755,616.39 653,610.5C 659.271,605.095 665.771,599.095 672.5,592.5C 674.111,589.78 674.944,586.78 675,583.5C 675.983,588.272 676.817,592.938 677.5,597.5 Z"/></g>
<g><path style="opacity:0.212" fill="#685f95" d="M 833.5,677.5 C 832.163,678.315 831.163,679.482 830.5,681C 826.197,682.665 821.864,682.831 817.5,681.5C 817.178,679.278 817.845,677.444 819.5,676C 820.996,675.493 822.163,675.993 823,677.5C 823.903,676.299 825.069,675.465 826.5,675C 823.429,674.853 820.596,674.02 818,672.5C 816.23,675.042 814.73,677.709 813.5,680.5C 809.271,682.549 804.938,682.882 800.5,681.5C 799.678,675.791 801.511,674.457 806,677.5C 809.039,674.941 808.206,673.774 803.5,674C 801.667,672.833 799.833,671.667 798,670.5C 797.501,674.152 797.335,677.818 797.5,681.5C 792.93,681.762 790.93,679.596 791.5,675C 791.691,672.95 792.358,671.117 793.5,669.5C 792.01,666.996 790.343,664.662 788.5,662.5C 791.774,657.431 795.274,657.431 799,662.5C 805.239,657.038 811.073,657.372 816.5,663.5C 817.386,662.675 817.719,661.675 817.5,660.5C 820.322,660.322 822.989,659.655 825.5,658.5C 828,659.5 830.5,660.5 833,661.5C 835.703,660.143 838.537,659.143 841.5,658.5C 843.924,659.021 846.257,659.688 848.5,660.5C 851.742,666.214 850.742,671.047 845.5,675C 847.025,676.009 848.692,676.509 850.5,676.5C 850.5,678.167 850.5,679.833 850.5,681.5C 844.833,681.5 839.167,681.5 833.5,681.5C 833.5,680.167 833.5,678.833 833.5,677.5 Z M 824.5,664.5 C 826.87,664.983 827.537,666.149 826.5,668C 822.448,668.392 821.781,667.225 824.5,664.5 Z M 805.5,664.5 C 807.484,664.383 809.15,665.05 810.5,666.5C 809.131,668.124 807.464,668.624 805.5,668C 804.316,666.855 804.316,665.688 805.5,664.5 Z M 833.5,677.5 C 834.207,674.214 834.54,670.881 834.5,667.5C 836.799,666.862 838.966,665.862 841,664.5C 842.158,664.998 842.991,665.831 843.5,667C 840.295,670.703 836.961,674.203 833.5,677.5 Z"/></g>
<g><path style="opacity:0.482" fill="#403c8a" d="M 444.5,658.5 C 447.012,658.423 449.012,659.423 450.5,661.5C 449.833,662.167 449.167,662.833 448.5,663.5C 449.724,666.131 450.391,668.965 450.5,672C 450.333,674.5 450.167,677 450,679.5C 447.667,682.167 445.333,682.167 443,679.5C 442.5,680 442,680.5 441.5,681C 437.833,681.667 434.167,681.667 430.5,681C 427.742,678.598 428.075,676.598 431.5,675C 427.52,671.73 427.52,668.397 431.5,665C 435.917,663.814 439.75,664.647 443,667.5C 444.026,664.593 444.526,661.593 444.5,658.5 Z M 442.5,668.5 C 443.613,669.946 443.78,671.613 443,673.5C 442.5,672.333 441.667,671.5 440.5,671C 441.756,670.583 442.423,669.75 442.5,668.5 Z"/></g>
<g><path style="opacity:0.541" fill="#444188" d="M 453.5,664.5 C 457.514,664.334 461.514,664.501 465.5,665C 467.422,666.42 468.755,668.253 469.5,670.5C 472.126,664.939 476.459,663.106 482.5,665C 484.949,668.089 487.282,668.089 489.5,665C 496.876,662.479 501.543,664.812 503.5,672C 502.252,674.893 501.252,677.893 500.5,681C 497.167,681.667 493.833,681.667 490.5,681C 488.479,680.487 486.979,679.32 486,677.5C 485.691,678.766 485.191,679.933 484.5,681C 480.833,681.667 477.167,681.667 473.5,681C 471.564,679.638 470.231,677.805 469.5,675.5C 468.534,677.396 468.201,679.396 468.5,681.5C 466.856,681.714 465.356,681.38 464,680.5C 463.502,677.183 463.335,673.85 463.5,670.5C 461.533,670.261 459.699,670.594 458,671.5C 457.502,674.817 457.335,678.15 457.5,681.5C 452.191,681.509 450.191,678.842 451.5,673.5C 451.851,670.378 452.518,667.378 453.5,664.5 Z M 477.5,670.5 C 480.167,670.833 482.833,671.167 485.5,671.5C 485.657,672.873 485.49,674.207 485,675.5C 482.731,674.405 480.564,674.739 478.5,676.5C 475.025,674.916 474.692,672.916 477.5,670.5 Z"/></g>
<g><path style="opacity:0.831" fill="#26206f" d="M 321.5,715.5 C 336.805,716.436 352.138,716.769 367.5,716.5C 367.5,721.167 367.5,725.833 367.5,730.5C 360.159,730.666 352.826,730.5 345.5,730C 352.492,729.5 359.492,729.334 366.5,729.5C 366.5,725.5 366.5,721.5 366.5,717.5C 352.167,717.5 337.833,717.5 323.5,717.5C 323.168,751.004 323.502,784.338 324.5,817.5C 338.661,818.331 352.994,818.831 367.5,819C 352.142,819.231 336.809,819.731 321.5,820.5C 320.171,785.598 320.171,750.598 321.5,715.5 Z"/></g>
<g><path style="opacity:0.691" fill="#36337b" d="M 753.5,717.5 C 753.666,722.511 753.499,727.511 753,732.5C 749.27,733.46 745.437,733.793 741.5,733.5C 743.969,732.683 746.635,732.183 749.5,732C 744.845,731.501 740.179,731.334 735.5,731.5C 740.305,730.513 745.305,730.179 750.5,730.5C 750.5,726.167 750.5,721.833 750.5,717.5C 682.322,716.794 683.322,716.794 753.5,717.5 Z"/></g>
<g><path style="opacity:0.759" fill="#39357c" d="M 650.5,715.5 C 651.338,715.842 651.672,716.508 651.5,717.5C 650.703,721.029 649.703,721.195 648.5,718C 644.179,717.501 639.846,717.334 635.5,717.5C 635.5,751.167 635.5,784.833 635.5,818.5C 640.833,818.5 646.167,818.5 651.5,818.5C 651.333,800.83 651.5,783.164 652,765.5C 652.333,765.833 652.667,766.167 653,766.5C 653.333,765.5 653.667,764.5 654,763.5C 659.786,778.865 665.952,794.032 672.5,809C 672.333,809.5 672.167,810 672,810.5C 671.417,808.998 670.584,807.665 669.5,806.5C 668.893,806.624 668.56,806.957 668.5,807.5C 664.059,796.599 659.559,785.599 655,774.5C 654.667,789.833 654.333,805.167 654,820.5C 647.256,821.479 640.422,821.812 633.5,821.5C 633.5,820.5 633.5,819.5 633.5,818.5C 634.498,784.671 634.832,750.671 634.5,716.5C 640.026,716.821 645.36,716.488 650.5,715.5 Z"/></g>
<g><path style="opacity:1" fill="#464284" d="M 524.5,763.5 C 523.503,763.47 522.836,763.97 522.5,765C 524.227,769.834 524.893,774.667 524.5,779.5C 522.684,771.566 521.184,763.566 520,755.5C 519.026,757.878 518.359,757.544 518,754.5C 517.265,756.871 516.432,759.205 515.5,761.5C 517.078,762.298 518.744,762.798 520.5,763C 518.692,766.03 516.025,767.863 512.5,768.5C 513.511,771.502 513.344,774.502 512,777.5C 511.751,776.376 511.251,775.376 510.5,774.5C 509.893,774.624 509.56,774.957 509.5,775.5C 508.596,774.791 508.263,773.791 508.5,772.5C 509.649,772.209 510.316,771.376 510.5,770C 509.076,763.545 507.909,757.045 507,750.5C 506.517,751.448 506.351,752.448 506.5,753.5C 505.178,753.33 504.011,753.663 503,754.5C 501.89,752.963 500.39,752.297 498.5,752.5C 497.636,757.693 496.303,757.693 494.5,752.5C 493.833,755.5 493.167,758.5 492.5,761.5C 491.445,780.164 490.945,798.831 491,817.5C 495.066,818.464 499.233,818.797 503.5,818.5C 503.604,798.158 504.104,777.825 505,757.5C 505.333,777.5 505.667,797.5 506,817.5C 506.383,818.056 506.883,818.389 507.5,818.5C 507.047,819.458 506.381,820.292 505.5,821C 499.584,821.807 493.75,821.641 488,820.5C 487.998,785.834 488.498,751.167 489.5,716.5C 493.649,715.231 497.982,714.565 502.5,714.5C 506.5,714.833 510.5,715.167 514.5,715.5C 518.559,731.368 521.892,747.368 524.5,763.5 Z"/></g>
<g><path style="opacity:1" fill="#4e4c8a" d="M 753.5,717.5 C 683.322,716.794 682.322,716.794 750.5,717.5C 750.5,721.833 750.5,726.167 750.5,730.5C 745.305,730.179 740.305,730.513 735.5,731.5C 735.667,760.835 735.5,790.169 735,819.5C 734.005,820.066 733.172,820.733 732.5,821.5C 726.167,821.5 719.833,821.5 713.5,821.5C 713.833,792.492 713.5,763.492 712.5,734.5C 707.553,733.717 702.553,733.217 697.5,733C 697,732.5 696.5,732 696,731.5C 695.333,726.5 695.333,721.5 696,716.5C 705.271,715.18 714.771,714.514 724.5,714.5C 733.833,714.667 743.167,714.833 752.5,715C 753.252,715.671 753.586,716.504 753.5,717.5 Z"/></g>
<g><path style="opacity:1" fill="#464384" d="M 861.5,714.5 C 880.307,714.808 889.974,724.308 890.5,743C 890.098,748.901 889.265,754.734 888,760.5C 884.82,764.345 881.653,768.178 878.5,772C 882.121,784.533 885.955,797.033 890,809.5C 891.015,813.44 891.515,817.44 891.5,821.5C 883.5,821.5 875.5,821.5 867.5,821.5C 864.108,807.821 860.608,794.155 857,780.5C 856.288,778.153 855.121,776.153 853.5,774.5C 852.914,774.709 852.414,775.043 852,775.5C 851.667,790.5 851.333,805.5 851,820.5C 843.253,821.482 835.42,821.815 827.5,821.5C 827.567,820.041 827.234,818.708 826.5,817.5C 828.493,784.183 829.16,750.517 828.5,716.5C 839.838,716.667 851.172,716.5 862.5,716C 861.944,715.617 861.611,715.117 861.5,714.5 Z M 852.5,731.5 C 856.292,731.726 859.959,732.56 863.5,734C 868.82,741.282 868.82,748.615 863.5,756C 859.702,757.783 855.702,758.616 851.5,758.5C 851.196,749.416 851.529,740.416 852.5,731.5 Z"/></g>
<g><path style="opacity:1" fill="#433f82" d="M 937.5,818.5 C 936.669,805.006 936.169,791.339 936,777.5C 935.5,791.163 935.333,804.829 935.5,818.5C 929.5,818.5 923.5,818.5 917.5,818.5C 917.667,804.163 917.5,789.829 917,775.5C 915.821,772.481 914.487,769.481 913,766.5C 913.256,768.602 913.089,770.602 912.5,772.5C 907.121,756.532 901.621,740.532 896,724.5C 894.957,721.243 894.457,717.91 894.5,714.5C 902.167,714.5 909.833,714.5 917.5,714.5C 919.89,724.735 922.89,734.735 926.5,744.5C 929.456,734.494 932.79,724.66 936.5,715C 943.492,714.5 950.492,714.334 957.5,714.5C 956.654,719.874 955.488,725.207 954,730.5C 948.051,746.015 942.884,761.849 938.5,778C 937.564,791.479 937.23,804.979 937.5,818.5 Z"/></g>
<g><path style="opacity:1" fill="#524f8d" d="M 668.5,807.5 C 668.56,806.957 668.893,806.624 669.5,806.5C 670.584,807.665 671.417,808.998 672,810.5C 672.167,810 672.333,809.5 672.5,809C 665.952,794.032 659.786,778.865 654,763.5C 653.667,764.5 653.333,765.5 653,766.5C 652.667,766.167 652.333,765.833 652,765.5C 651.5,783.164 651.333,800.83 651.5,818.5C 646.167,818.5 640.833,818.5 635.5,818.5C 635.5,784.833 635.5,751.167 635.5,717.5C 639.846,717.334 644.179,717.501 648.5,718C 649.703,721.195 650.703,721.029 651.5,717.5C 657.673,730.658 663.673,743.991 669.5,757.5C 670.499,743.182 670.833,728.849 670.5,714.5C 677.5,714.5 684.5,714.5 691.5,714.5C 691.667,749.835 691.5,785.168 691,820.5C 685.584,821.639 680.084,821.806 674.5,821C 671.821,816.755 669.821,812.255 668.5,807.5 Z"/></g>
<g><path style="opacity:0.82" fill="#292371" d="M 425.5,818.5 C 425.586,819.496 425.252,820.329 424.5,821C 408.837,821.5 393.17,821.667 377.5,821.5C 377.5,820.5 377.5,819.5 377.5,818.5C 378.498,784.671 378.832,750.671 378.5,716.5C 385.5,716.5 392.5,716.5 399.5,716.5C 399.667,745.835 399.5,775.169 399,804.5C 398.5,775.502 398.333,746.502 398.5,717.5C 392.167,717.5 385.833,717.5 379.5,717.5C 379.5,751.167 379.5,784.833 379.5,818.5C 394.833,818.5 410.167,818.5 425.5,818.5 Z"/></g>
<g><path style="opacity:1" fill="#4d4a8a" d="M 509.5,775.5 C 509.56,774.957 509.893,774.624 510.5,774.5C 511.251,775.376 511.751,776.376 512,777.5C 513.344,774.502 513.511,771.502 512.5,768.5C 516.025,767.863 518.692,766.03 520.5,763C 518.744,762.798 517.078,762.298 515.5,761.5C 516.432,759.205 517.265,756.871 518,754.5C 518.359,757.544 519.026,757.878 520,755.5C 521.184,763.566 522.684,771.566 524.5,779.5C 524.893,774.667 524.227,769.834 522.5,765C 522.836,763.97 523.503,763.47 524.5,763.5C 524.838,765.854 525.338,768.187 526,770.5C 530.972,752.284 535.139,733.951 538.5,715.5C 546.725,714.185 554.892,714.185 563,715.5C 563.782,749.007 564.615,782.507 565.5,816C 565.456,817.764 565.122,819.431 564.5,821C 558.833,821.667 553.167,821.667 547.5,821C 547,820.5 546.5,820 546,819.5C 545.955,803.433 545.288,787.433 544,771.5C 541.733,787.966 538.733,804.299 535,820.5C 529.593,821.473 524.093,821.807 518.5,821.5C 515.733,806 512.733,790.666 509.5,775.5 Z"/></g>
<g><path style="opacity:1" fill="#3e3a7f" d="M 321.5,715.5 C 337.005,714.173 352.672,714.173 368.5,715.5C 370.536,720.27 371.036,725.27 370,730.5C 369.5,731 369,731.5 368.5,732C 360.946,733.432 353.279,733.932 345.5,733.5C 345.5,740.833 345.5,748.167 345.5,755.5C 347.167,755.5 348.833,755.5 350.5,755.5C 353.403,757.104 356.737,758.104 360.5,758.5C 361.833,763.167 361.833,767.833 360.5,772.5C 361.325,773.386 362.325,773.719 363.5,773.5C 358.025,774.489 352.358,774.822 346.5,774.5C 346.189,773.522 345.522,772.855 344.5,772.5C 343.833,783.167 343.167,793.833 342.5,804.5C 341.571,803.311 341.238,801.978 341.5,800.5C 340.167,800.5 338.833,800.5 337.5,800.5C 337.174,802.661 336.174,804.494 334.5,806C 331.464,806.709 328.631,807.876 326,809.5C 325.667,807.5 325.333,805.5 325,803.5C 324.501,808.155 324.334,812.821 324.5,817.5C 323.502,784.338 323.168,751.004 323.5,717.5C 337.833,717.5 352.167,717.5 366.5,717.5C 366.5,721.5 366.5,725.5 366.5,729.5C 359.492,729.334 352.492,729.5 345.5,730C 352.826,730.5 360.159,730.666 367.5,730.5C 367.5,725.833 367.5,721.167 367.5,716.5C 352.138,716.769 336.805,716.436 321.5,715.5 Z"/></g>
<g><path style="opacity:1" fill="#494687" d="M 774.5,714.5 C 782.84,714.334 791.173,714.5 799.5,715C 800.612,719.499 801.779,723.999 803,728.5C 808.239,758.04 814.072,787.373 820.5,816.5C 820.61,818.374 819.944,819.874 818.5,821C 811.508,821.5 804.508,821.666 797.5,821.5C 795.95,814.235 794.617,806.902 793.5,799.5C 789.217,798.508 784.884,798.174 780.5,798.5C 778.81,805.372 777.644,812.372 777,819.5C 776.5,820 776,820.5 775.5,821C 768.174,821.5 760.841,821.666 753.5,821.5C 754.135,814.819 754.969,808.152 756,801.5C 759.789,784.672 763.122,767.672 766,750.5C 768.877,738.558 771.71,726.558 774.5,714.5 Z M 785.5,757.5 C 787.045,758.23 787.878,759.563 788,761.5C 788.086,768.322 788.92,774.989 790.5,781.5C 788.167,781.5 785.833,781.5 783.5,781.5C 784.587,773.546 785.253,765.546 785.5,757.5 Z"/></g>
<g><path style="opacity:1" fill="#474485" d="M 480.5,717.5 C 480.827,722.214 480.493,726.88 479.5,731.5C 478.692,731.808 478.025,732.308 477.5,733C 470.833,733.333 464.167,733.667 457.5,734C 454.972,735.017 454.972,736.184 457.5,737.5C 456.358,739.117 455.691,740.95 455.5,743C 456.732,747.091 457.399,751.258 457.5,755.5C 462.844,755.334 468.177,755.501 473.5,756C 474,756.5 474.5,757 475,757.5C 475.784,762.887 475.618,768.22 474.5,773.5C 468.872,774.495 463.206,774.829 457.5,774.5C 457.666,779.511 457.499,784.511 457,789.5C 455,790.5 455,791.5 457,792.5C 457.499,796.152 457.665,799.818 457.5,803.5C 465.167,803.5 472.833,803.5 480.5,803.5C 481.691,808.645 481.691,813.645 480.5,818.5C 465.5,818.5 450.5,818.5 435.5,818.5C 435.5,784.833 435.5,751.167 435.5,717.5C 449.5,717.5 463.5,717.5 477.5,717.5C 477.5,721.5 477.5,725.5 477.5,729.5C 470.159,729.334 462.826,729.5 455.5,730C 463.159,730.5 470.826,730.666 478.5,730.5C 477.903,725.706 478.57,721.373 480.5,717.5 Z"/></g>
<g><path style="opacity:0.516" fill="#353079" d="M 480.5,717.5 C 478.57,721.373 477.903,725.706 478.5,730.5C 470.826,730.666 463.159,730.5 455.5,730C 462.826,729.5 470.159,729.334 477.5,729.5C 477.5,725.5 477.5,721.5 477.5,717.5C 463.5,717.5 449.5,717.5 435.5,717.5C 435.5,751.167 435.5,784.833 435.5,818.5C 450.5,818.5 465.5,818.5 480.5,818.5C 480.5,819.5 480.5,820.5 480.5,821.5C 464.83,821.667 449.163,821.5 433.5,821C 433,820.5 432.5,820 432,819.5C 433.259,784.534 433.759,749.534 433.5,714.5C 449.167,714.5 464.833,714.5 480.5,714.5C 480.5,715.5 480.5,716.5 480.5,717.5 Z"/></g>
<g><path style="opacity:1" fill="#514e8d" d="M 577.5,714.5 C 593.167,714.5 608.833,714.5 624.5,714.5C 624.305,718.547 624.638,722.547 625.5,726.5C 625.06,728.765 624.394,730.932 623.5,733C 616.174,733.5 608.841,733.666 601.5,733.5C 601.5,740.833 601.5,748.167 601.5,755.5C 606.844,755.334 612.177,755.501 617.5,756C 618.025,756.692 618.692,757.192 619.5,757.5C 620.662,762.467 620.829,767.467 620,772.5C 619.5,773 619,773.5 618.5,774C 612.917,774.191 607.417,774.691 602,775.5C 601.5,784.827 601.334,794.161 601.5,803.5C 609.174,803.334 616.841,803.5 624.5,804C 625.833,809.667 625.833,815.333 624.5,821C 608.833,821.667 593.167,821.667 577.5,821C 576.874,820.25 576.374,819.416 576,818.5C 576.349,792.085 576.849,765.752 577.5,739.5C 576.977,732.599 576.31,725.765 575.5,719C 576.582,717.67 577.249,716.17 577.5,714.5 Z"/></g>
<g><path style="opacity:0.11" fill="#1f1367" d="M 350.5,755.5 C 360.301,752.58 364.968,756.08 364.5,766C 364.445,768.587 364.111,771.087 363.5,773.5C 362.325,773.719 361.325,773.386 360.5,772.5C 361.833,767.833 361.833,763.167 360.5,758.5C 356.737,758.104 353.403,757.104 350.5,755.5 Z"/></g>
<g><path style="opacity:1" fill="#4f4c8a" d="M 508.5,772.5 C 507.504,787.658 507.17,802.991 507.5,818.5C 506.883,818.389 506.383,818.056 506,817.5C 505.667,797.5 505.333,777.5 505,757.5C 504.104,777.825 503.604,798.158 503.5,818.5C 499.233,818.797 495.066,818.464 491,817.5C 490.945,798.831 491.445,780.164 492.5,761.5C 493.167,758.5 493.833,755.5 494.5,752.5C 496.303,757.693 497.636,757.693 498.5,752.5C 500.39,752.297 501.89,752.963 503,754.5C 504.011,753.663 505.178,753.33 506.5,753.5C 506.351,752.448 506.517,751.448 507,750.5C 507.909,757.045 509.076,763.545 510.5,770C 510.316,771.376 509.649,772.209 508.5,772.5 Z"/></g>
<g><path style="opacity:0.102" fill="#514f8c" d="M 735.5,731.5 C 740.179,731.334 744.845,731.501 749.5,732C 746.635,732.183 743.969,732.683 741.5,733.5C 740.178,733.33 739.011,733.663 738,734.5C 737.5,763.498 737.333,792.498 737.5,821.5C 735.833,821.5 734.167,821.5 732.5,821.5C 733.172,820.733 734.005,820.066 735,819.5C 735.5,790.169 735.667,760.835 735.5,731.5 Z"/></g>
<g><path style="opacity:0.293" fill="#585791" d="M 861.5,714.5 C 861.611,715.117 861.944,715.617 862.5,716C 851.172,716.5 839.838,716.667 828.5,716.5C 829.16,750.517 828.493,784.183 826.5,817.5C 827.48,783.198 827.813,748.864 827.5,714.5C 838.833,714.5 850.167,714.5 861.5,714.5 Z"/></g>
<g><path style="opacity:1" fill="#454284" d="M 425.5,818.5 C 410.167,818.5 394.833,818.5 379.5,818.5C 379.5,784.833 379.5,751.167 379.5,717.5C 385.833,717.5 392.167,717.5 398.5,717.5C 398.333,746.502 398.5,775.502 399,804.5C 399.5,775.169 399.667,745.835 399.5,716.5C 392.5,716.5 385.5,716.5 378.5,716.5C 378.832,750.671 378.498,784.671 377.5,818.5C 377.5,783.833 377.5,749.167 377.5,714.5C 385.609,713.886 393.442,714.553 401,716.5C 401.5,745.498 401.667,774.498 401.5,803.5C 409.174,803.334 416.841,803.5 424.5,804C 425.469,808.737 425.803,813.57 425.5,818.5 Z"/></g>
<g><path style="opacity:0.422" fill="#646097" d="M 650.5,715.5 C 645.36,716.488 640.026,716.821 634.5,716.5C 634.832,750.671 634.498,784.671 633.5,818.5C 632.624,818.631 631.957,818.298 631.5,817.5C 633.484,783.321 634.151,748.987 633.5,714.5C 639.358,714.178 645.025,714.511 650.5,715.5 Z"/></g>
<g><path style="opacity:1" fill="#464485" d="M 346.5,774.5 C 345.506,783.986 345.173,793.652 345.5,803.5C 353.556,803.198 361.556,803.531 369.5,804.5C 370.662,809.467 370.829,814.467 370,819.5C 369.5,820 369,820.5 368.5,821C 352.661,821.828 336.995,821.661 321.5,820.5C 336.809,819.731 352.142,819.231 367.5,819C 352.994,818.831 338.661,818.331 324.5,817.5C 324.334,812.821 324.501,808.155 325,803.5C 325.333,805.5 325.667,807.5 326,809.5C 328.631,807.876 331.464,806.709 334.5,806C 336.174,804.494 337.174,802.661 337.5,800.5C 338.833,800.5 340.167,800.5 341.5,800.5C 341.238,801.978 341.571,803.311 342.5,804.5C 343.167,793.833 343.833,783.167 344.5,772.5C 345.522,772.855 346.189,773.522 346.5,774.5 Z"/></g>
<g><path style="opacity:0.887" fill="#2c2872" d="M 937.5,818.5 C 937.5,819.5 937.5,820.5 937.5,821.5C 929.833,821.5 922.167,821.5 914.5,821.5C 914.667,806.83 914.5,792.163 914,777.5C 913.648,775.753 913.148,774.086 912.5,772.5C 913.089,770.602 913.256,768.602 913,766.5C 914.487,769.481 915.821,772.481 917,775.5C 917.5,789.829 917.667,804.163 917.5,818.5C 923.5,818.5 929.5,818.5 935.5,818.5C 935.333,804.829 935.5,791.163 936,777.5C 936.169,791.339 936.669,805.006 937.5,818.5 Z"/></g>
<g><path style="opacity:1" fill="#413e81" d="M 527.5,867.5 C 525.876,867.36 524.71,868.027 524,869.5C 522.828,879.791 522.161,890.124 522,900.5C 521.831,893.476 521.331,886.476 520.5,879.5C 519.108,880.605 517.941,881.939 517,883.5C 515.484,880.949 514.651,881.282 514.5,884.5C 512.712,884.215 511.045,884.548 509.5,885.5C 511.021,885.88 512.687,886.046 514.5,886C 512.334,888.485 509.668,888.985 506.5,887.5C 505.649,890.826 504.815,894.826 504,899.5C 502.87,912.619 503.537,925.619 506,938.5C 507.717,943.549 510.884,947.382 515.5,950C 522.828,952.802 530.494,954.136 538.5,954C 533.649,954.174 528.982,954.674 524.5,955.5C 512.433,953.438 504.767,946.438 501.5,934.5C 500.167,912.167 500.167,889.833 501.5,867.5C 503.858,858.735 509.025,852.401 517,848.5C 550.778,839.953 566.112,852.953 563,887.5C 554.919,888.482 546.752,888.816 538.5,888.5C 538.666,881.825 538.5,875.158 538,868.5C 534.777,864.983 531.277,864.65 527.5,867.5 Z"/></g>
<g><path style="opacity:1" fill="#4d4b8a" d="M 746.5,845.5 C 757.919,844.936 768.253,847.936 777.5,854.5C 780.141,858.585 782.308,862.918 784,867.5C 785.985,889.832 785.985,912.165 784,934.5C 781.851,945.623 775.351,952.457 764.5,955C 756.5,955.667 748.5,955.667 740.5,955C 729.171,950.916 722.671,942.749 721,930.5C 720.082,909.134 720.416,887.8 722,866.5C 724.215,858.904 728.715,853.071 735.5,849C 739.529,848.584 743.196,847.417 746.5,845.5 Z M 748.5,865.5 C 753.706,864.479 757.539,866.145 760,870.5C 760.833,890.508 760.666,910.508 759.5,930.5C 758.56,935.616 755.56,937.783 750.5,937C 748.578,935.58 747.245,933.747 746.5,931.5C 745.334,911.175 745.167,890.842 746,870.5C 747.372,869.09 748.205,867.423 748.5,865.5 Z"/></g>
<g><path style="opacity:1" fill="#37327a" d="M 458.5,872.5 C 456.991,871.141 456.324,871.641 456.5,874C 456.911,876.903 457.911,879.569 459.5,882C 459.167,882.167 458.833,882.333 458.5,882.5C 456.179,879.606 455.012,876.273 455,872.5C 451.405,875.049 447.571,877.215 443.5,879C 439.323,884.948 439.99,890.448 445.5,895.5C 452.482,901.314 459.315,907.314 466,913.5C 466.667,914.167 466.667,914.833 466,915.5C 464.114,912.758 461.614,911.091 458.5,910.5C 450.907,904.741 444.073,898.075 438,890.5C 428.904,864.331 437.904,849.331 465,845.5C 483.645,847.824 492.645,858.491 492,877.5C 485.115,880.175 477.948,881.508 470.5,881.5C 470.78,876.236 469.78,871.236 467.5,866.5C 465.5,865.167 463.5,865.167 461.5,866.5C 460.441,868.534 459.441,870.534 458.5,872.5 Z"/></g>
<g><path style="opacity:1" fill="#4d4a89" d="M 817.5,848.5 C 816.34,877.595 815.673,906.929 815.5,936.5C 813.473,936.338 811.473,936.505 809.5,937C 808.62,938.356 808.286,939.856 808.5,941.5C 804.993,940.994 801.826,941.66 799,943.5C 798.667,912.167 798.333,880.833 798,849.5C 798.161,883.848 797.328,917.848 795.5,951.5C 795.333,917.498 795.5,883.498 796,849.5C 796.5,849 797,848.5 797.5,848C 804.346,847.179 811.013,847.346 817.5,848.5 Z"/></g>
<g><path style="opacity:1" fill="#504d8b" d="M 672.5,845.5 C 682.41,844.635 691.744,846.468 700.5,851C 706.466,856.094 709.966,862.594 711,870.5C 711.8,891.851 711.634,913.184 710.5,934.5C 708.014,945.485 701.348,952.318 690.5,955C 682.833,955.667 675.167,955.667 667.5,955C 655.838,952.131 649.338,944.631 648,932.5C 647.193,910.313 647.36,888.147 648.5,866C 652.282,854.879 659.948,848.546 671.5,847C 672.056,846.617 672.389,846.117 672.5,845.5 Z M 675.5,865.5 C 682.8,864.115 686.3,867.115 686,874.5C 686.181,890.877 686.681,907.211 687.5,923.5C 686.373,927.135 685.373,930.802 684.5,934.5C 681.656,938.004 678.489,938.337 675,935.5C 674,932.833 673,930.167 672,927.5C 671.333,909.833 671.333,892.167 672,874.5C 673.022,871.382 674.189,868.382 675.5,865.5 Z"/></g>
<g><path style="opacity:1" fill="#54528e" d="M 573.5,851.5 C 574.332,884.998 574.832,918.664 575,952.5C 575.333,939.833 575.667,927.167 576,914.5C 576.333,914.833 576.667,915.167 577,915.5C 577.333,912.833 577.667,910.167 578,907.5C 578.179,910.553 578.679,913.553 579.5,916.5C 583.904,912.262 588.738,908.595 594,905.5C 594.196,921.877 594.696,938.211 595.5,954.5C 588.167,954.5 580.833,954.5 573.5,954.5C 573.5,920.167 573.5,885.833 573.5,851.5 Z"/></g>
<g><path style="opacity:1" fill="#464385" d="M 458.5,872.5 C 459.027,875.231 459.86,877.898 461,880.5C 467.199,886.809 473.699,892.643 480.5,898C 485.795,903.431 489.962,909.597 493,916.5C 496.686,929.831 493.853,941.331 484.5,951C 473.952,955.793 462.952,956.793 451.5,954C 438.752,946.605 433.419,935.605 435.5,921C 441.964,918.526 448.631,917.526 455.5,918C 456,918.5 456.5,919 457,919.5C 457.217,924.292 458.05,928.959 459.5,933.5C 463.814,936.644 467.314,935.977 470,931.5C 469.306,922.779 465.473,915.779 458.5,910.5C 461.614,911.091 464.114,912.758 466,915.5C 466.667,914.833 466.667,914.167 466,913.5C 459.315,907.314 452.482,901.314 445.5,895.5C 439.99,890.448 439.323,884.948 443.5,879C 447.571,877.215 451.405,875.049 455,872.5C 455.012,876.273 456.179,879.606 458.5,882.5C 458.833,882.333 459.167,882.167 459.5,882C 457.911,879.569 456.911,876.903 456.5,874C 456.324,871.641 456.991,871.141 458.5,872.5 Z"/></g>
<g><path style="opacity:1" fill="#4e4c8a" d="M 527.5,867.5 C 526.001,869.49 525.168,871.823 525,874.5C 524.212,893.016 524.379,911.516 525.5,930C 526.216,935.391 529.216,937.725 534.5,937C 535.333,936.167 536.167,935.333 537,934.5C 538.384,927.589 538.884,920.589 538.5,913.5C 540.6,913.523 542.433,912.856 544,911.5C 544.945,911.905 545.612,912.572 546,913.5C 546.674,912.422 547.674,911.755 549,911.5C 552.274,913.898 555.441,913.898 558.5,911.5C 559.85,912.95 561.516,913.617 563.5,913.5C 564.98,925.203 562.98,936.203 557.5,946.5C 554.742,949.718 551.409,952.218 547.5,954C 539.895,955.311 532.228,955.811 524.5,955.5C 528.982,954.674 533.649,954.174 538.5,954C 530.494,954.136 522.828,952.802 515.5,950C 510.884,947.382 507.717,943.549 506,938.5C 503.537,925.619 502.87,912.619 504,899.5C 504.815,894.826 505.649,890.826 506.5,887.5C 509.668,888.985 512.334,888.485 514.5,886C 512.687,886.046 511.021,885.88 509.5,885.5C 511.045,884.548 512.712,884.215 514.5,884.5C 514.651,881.282 515.484,880.949 517,883.5C 517.941,881.939 519.108,880.605 520.5,879.5C 521.331,886.476 521.831,893.476 522,900.5C 522.161,890.124 522.828,879.791 524,869.5C 524.71,868.027 525.876,867.36 527.5,867.5 Z"/></g>
<g><path style="opacity:1" fill="#4d4b8a" d="M 595.5,954.5 C 594.696,938.211 594.196,921.877 594,905.5C 588.738,908.595 583.904,912.262 579.5,916.5C 578.679,913.553 578.179,910.553 578,907.5C 577.667,910.167 577.333,912.833 577,915.5C 576.667,915.167 576.333,914.833 576,914.5C 575.667,927.167 575.333,939.833 575,952.5C 574.832,918.664 574.332,884.998 573.5,851.5C 573.33,850.178 573.663,849.011 574.5,848C 581.167,847.333 587.833,847.333 594.5,848C 595.416,848.374 596.25,848.874 597,849.5C 597.5,863.163 597.667,876.829 597.5,890.5C 602.322,891.065 606.822,890.399 611,888.5C 611.5,875.171 611.667,861.837 611.5,848.5C 619.377,847.246 627.21,847.246 635,848.5C 635.5,883.832 635.667,919.165 635.5,954.5C 627.5,954.5 619.5,954.5 611.5,954.5C 611.5,939.167 611.5,923.833 611.5,908.5C 606.833,908.5 602.167,908.5 597.5,908.5C 598.151,924.203 597.484,939.536 595.5,954.5 Z"/></g>
<g><path style="opacity:1" fill="#3f3b80" d="M 817.5,848.5 C 818.496,848.414 819.329,848.748 820,849.5C 820.5,878.831 820.667,908.165 820.5,937.5C 828.5,937.5 836.5,937.5 844.5,937.5C 844.5,943.167 844.5,948.833 844.5,954.5C 828.167,954.5 811.833,954.5 795.5,954.5C 795.5,953.5 795.5,952.5 795.5,951.5C 797.328,917.848 798.161,883.848 798,849.5C 798.333,880.833 798.667,912.167 799,943.5C 801.826,941.66 804.993,940.994 808.5,941.5C 808.286,939.856 808.62,938.356 809.5,937C 811.473,936.505 813.473,936.338 815.5,936.5C 815.673,906.929 816.34,877.595 817.5,848.5 Z"/></g>
<g><path style="opacity:0.89" fill="#7f82a7" d="M 700.5,988.5 C 702.833,988.5 705.167,988.5 707.5,988.5C 707.421,989.93 707.754,991.264 708.5,992.5C 710.296,993.141 711.796,994.141 713,995.5C 716.009,993.79 719.176,992.456 722.5,991.5C 725.324,993.052 728.324,994.052 731.5,994.5C 736.173,1009.67 730.506,1016.17 714.5,1014C 713.069,1013.53 711.903,1012.7 711,1011.5C 707.743,1014.43 703.909,1015.26 699.5,1014C 698.106,1012.26 697.439,1010.26 697.5,1008C 699.113,1003.76 698.78,999.759 696.5,996C 698.097,993.589 699.43,991.089 700.5,988.5 Z M 707.5,998.5 C 708.5,998.5 709.5,998.5 710.5,998.5C 709.833,1001.83 709.167,1005.17 708.5,1008.5C 706.365,1008.85 705.032,1008.02 704.5,1006C 704.978,1003.22 705.978,1000.72 707.5,998.5 Z M 720.5,998.5 C 725.537,999.242 726.704,1001.91 724,1006.5C 720.382,1009.46 717.549,1008.8 715.5,1004.5C 717.19,1002.48 718.856,1000.48 720.5,998.5 Z"/></g>
<g><path style="opacity:0.824" fill="#7c7fa5" d="M 654.5,991.5 C 656.199,991.34 657.866,991.506 659.5,992C 662.065,992.96 664.231,994.46 666,996.5C 671.353,991.589 677.186,990.756 683.5,994C 688.6,998.768 688.6,1003.44 683.5,1008C 684.876,1010.54 684.21,1012.54 681.5,1014C 677.167,1014.67 672.833,1014.67 668.5,1014C 667.91,1012.7 666.91,1011.87 665.5,1011.5C 660.217,1014.36 654.55,1015.2 648.5,1014C 643.576,1008.1 643.243,1001.93 647.5,995.5C 650.268,994.602 652.601,993.269 654.5,991.5 Z M 654.5,998.5 C 657.833,999.5 661.167,1000.5 664.5,1001.5C 664.67,1002.82 664.337,1003.99 663.5,1005C 660.61,1006.03 657.776,1007.2 655,1008.5C 652.719,1008.19 651.552,1006.85 651.5,1004.5C 651.697,1002 652.697,1000 654.5,998.5 Z M 677.5,1000.5 C 675.663,1000.36 675.33,999.694 676.5,998.5C 677.298,998.957 677.631,999.624 677.5,1000.5 Z M 671.5,1005.5 C 674.397,1005.13 677.063,1005.63 679.5,1007C 677.305,1008.37 674.971,1008.71 672.5,1008C 671.748,1007.33 671.414,1006.5 671.5,1005.5 Z"/></g>
<g><path style="opacity:0.265" fill="#8387a9" d="M 803.5,991.5 C 805.57,991.449 807.403,992.115 809,993.5C 811.333,990.833 813.667,990.833 816,993.5C 818.333,990.833 820.667,990.833 823,993.5C 827.529,990.695 831.529,991.361 835,995.5C 835.769,1001.94 835.269,1008.28 833.5,1014.5C 831.5,1014.5 829.5,1014.5 827.5,1014.5C 827.305,1010.45 827.638,1006.45 828.5,1002.5C 827.244,997.513 825.077,997.179 822,1001.5C 821.592,1006.43 820.092,1010.93 817.5,1015C 816.216,1015.68 815.049,1015.52 814,1014.5C 813.471,1009.15 813.638,1003.81 814.5,998.5C 811.912,998.543 809.746,999.543 808,1001.5C 806.137,1005.63 805.304,1009.97 805.5,1014.5C 801.221,1016.53 798.888,1015.19 798.5,1010.5C 799.602,1004.01 801.269,997.673 803.5,991.5 Z"/></g>
<g><path style="opacity:0.195" fill="#7a7ea3" d="M 461.5,991.5 C 465.003,991.335 467.003,993.002 467.5,996.5C 466.087,1002.08 464.754,1007.75 463.5,1013.5C 448.402,1018.87 441.902,1013.87 444,998.5C 445.5,997 447,995.5 448.5,994C 453.28,994.108 457.614,993.275 461.5,991.5 Z M 453.5,998.5 C 455.451,998.227 456.951,998.893 458,1000.5C 458.334,1002.85 458.167,1005.18 457.5,1007.5C 451.389,1009.89 449.223,1007.89 451,1001.5C 452.045,1000.63 452.878,999.627 453.5,998.5 Z"/></g>
<g><path style="opacity:0.855" fill="#777ba1" d="M 496.5,991.5 C 500.062,991.564 501.729,993.397 501.5,997C 500.151,1003.87 498.484,1010.71 496.5,1017.5C 495.231,1019.18 493.564,1020.35 491.5,1021C 487.29,1021.74 483.124,1021.57 479,1020.5C 474.284,1017.11 474.784,1014.44 480.5,1012.5C 479.758,1011.71 478.925,1011.05 478,1010.5C 477.228,1006.11 477.394,1001.78 478.5,997.5C 479.515,996.319 480.681,995.319 482,994.5C 487.243,994.244 492.076,993.244 496.5,991.5 Z M 487.5,998.5 C 494.066,999.246 495.066,1002.08 490.5,1007C 486.872,1008.32 484.539,1007.15 483.5,1003.5C 484.857,1001.81 486.19,1000.15 487.5,998.5 Z"/></g>
<g><path style="opacity:0.184" fill="#797da2" d="M 566.5,988.5 C 568.527,988.338 570.527,988.505 572.5,989C 575.737,991.388 577.403,994.554 577.5,998.5C 575.5,998.5 573.5,998.5 571.5,998.5C 570.671,1001.47 570.505,1004.47 571,1007.5C 572.356,1008.38 573.856,1008.71 575.5,1008.5C 575.739,1010.47 575.406,1012.3 574.5,1014C 571.118,1014.82 567.784,1014.66 564.5,1013.5C 563.456,1008.53 563.456,1003.53 564.5,998.5C 562.876,998.36 561.71,999.027 561,1000.5C 560.159,1005.19 559.326,1009.86 558.5,1014.5C 552.824,1014.67 547.157,1014.5 541.5,1014C 538.692,1011.76 536.692,1008.92 535.5,1005.5C 534.453,1006.92 534.453,1008.42 535.5,1010C 535.275,1011.62 534.442,1012.79 533,1013.5C 519.814,1016.97 514.314,1012.14 516.5,999C 513.702,998.439 511.869,999.606 511,1002.5C 509.846,1006.45 509.013,1010.45 508.5,1014.5C 506.167,1014.5 503.833,1014.5 501.5,1014.5C 502.985,1007.99 504.152,1001.32 505,994.5C 507.236,991.011 509.903,990.678 513,993.5C 513.95,992.978 514.784,992.311 515.5,991.5C 516.833,992.5 518.167,993.5 519.5,994.5C 526.944,990.134 533.11,991.467 538,998.5C 538.995,996.839 540.328,995.505 542,994.5C 544.769,993.782 547.436,992.782 550,991.5C 552.953,993.851 555.786,993.851 558.5,991.5C 562.285,994.006 564.951,993.006 566.5,988.5 Z M 523.5,1005.5 C 525.924,1005.19 528.257,1005.53 530.5,1006.5C 527.435,1009.47 525.102,1009.14 523.5,1005.5 Z M 547.5,998.5 C 552.494,998.329 554.328,1000.66 553,1005.5C 549.199,1009.83 546.366,1009.5 544.5,1004.5C 544.697,1002 545.697,1000 547.5,998.5 Z M 525.5,998.5 C 528.775,998.233 529.608,999.233 528,1001.5C 526.583,1000.92 525.75,999.922 525.5,998.5 Z"/></g>
<g><path style="opacity:0.823" fill="#7e83a7" d="M 747.5,985.5 C 749.467,985.261 751.301,985.594 753,986.5C 753.887,990.848 753.387,995.015 751.5,999C 751.833,999.5 752.167,1000 752.5,1000.5C 759.075,989.527 766.575,988.86 775,998.5C 775.785,996.714 776.951,995.214 778.5,994C 781.324,993.67 783.991,992.836 786.5,991.5C 789.5,994.167 792.5,994.167 795.5,991.5C 797.611,992.212 798.611,993.712 798.5,996C 796.336,1001.59 795.003,1007.43 794.5,1013.5C 789.198,1014.66 783.864,1014.83 778.5,1014C 775.215,1012.2 773.381,1009.37 773,1005.5C 772.04,1007.98 771.207,1010.48 770.5,1013C 759.338,1017.67 752.838,1014.17 751,1002.5C 750.687,1006.66 749.853,1010.66 748.5,1014.5C 746.833,1014.5 745.167,1014.5 743.5,1014.5C 743.873,1004.61 745.206,994.945 747.5,985.5 Z M 760.5,1005.5 C 762.604,1005.2 764.604,1005.53 766.5,1006.5C 763.736,1009.45 761.736,1009.12 760.5,1005.5 Z M 784.5,998.5 C 790.382,999.257 791.549,1001.92 788,1006.5C 784.507,1009.5 782.007,1008.84 780.5,1004.5C 781.073,1001.94 782.407,999.938 784.5,998.5 Z M 762.5,998.5 C 764.983,998.73 765.483,999.397 764,1000.5C 762.97,1000.16 762.47,999.497 762.5,998.5 Z"/></g>
<g><path style="opacity:0.218" fill="#7c81a5" d="M 617.5,984.5 C 620.258,984.757 621.925,986.257 622.5,989C 620.753,991.98 620.253,995.147 621,998.5C 622.507,997.495 623.673,996.162 624.5,994.5C 627.289,993.851 629.956,992.851 632.5,991.5C 633.833,992.167 635.167,992.833 636.5,993.5C 638.902,991.951 641.568,991.284 644.5,991.5C 644.148,999.349 643.148,1007.02 641.5,1014.5C 635.824,1014.67 630.157,1014.5 624.5,1014C 621.994,1012.49 620.328,1010.33 619.5,1007.5C 618.914,1007.71 618.414,1008.04 618,1008.5C 617.505,1010.47 617.338,1012.47 617.5,1014.5C 615.488,1015.01 613.488,1015.18 611.5,1015C 610.887,1012.85 610.221,1010.69 609.5,1008.5C 608.707,1011.13 607.04,1012.96 604.5,1014C 600.5,1014.33 596.5,1014.67 592.5,1015C 591.577,1017.04 591.244,1019.21 591.5,1021.5C 588.396,1022.03 586.063,1021.03 584.5,1018.5C 586.534,1010.61 588.201,1002.61 589.5,994.5C 590.665,993.509 591.832,992.509 593,991.5C 594,992.167 595,992.833 596,993.5C 597.22,992.612 598.553,991.945 600,991.5C 602.407,992.63 604.907,993.463 607.5,994C 609.613,996.955 611.28,1000.12 612.5,1003.5C 613.399,998.179 614.232,992.846 615,987.5C 616.045,986.627 616.878,985.627 617.5,984.5 Z M 630.5,998.5 C 634.134,998.156 635.8,999.823 635.5,1003.5C 635.43,1004.77 635.097,1005.94 634.5,1007C 632.314,1008.31 630.147,1008.48 628,1007.5C 626.927,1003.9 627.76,1000.9 630.5,998.5 Z M 597.5,998.5 C 603.643,999.026 604.976,1001.86 601.5,1007C 597.875,1009.52 595.541,1008.68 594.5,1004.5C 595.114,1002.24 596.114,1000.24 597.5,998.5 Z"/></g>
</svg>
